<svg width="250" height="171" viewBox="0 0 250 171" fill="none" xmlns="http://www.w3.org/2000/svg">
<rect width="250" height="171" rx="20" fill="#F8F8F8"/>
<path fill-rule="evenodd" clip-rule="evenodd" d="M125.167 34L169.652 65.2243L152.659 115.75H97.6732L80.6819 65.2243L125.167 34Z" fill="#DD2B1C"/>
<path d="M125.167 33.9999L169.652 65.2242L152.659 115.75H97.6732L80.6819 65.2242L125.167 33.9999Z" stroke="#151616" stroke-width="3"/>
<path fill-rule="evenodd" clip-rule="evenodd" d="M111.846 93.2214C110.29 95.7719 108.32 97.2558 105.902 97.5873C107.065 97.7951 108.128 97.9308 109.091 97.9978C109.06 100.835 106.953 101.771 104.415 102.312C105.524 102.585 106.635 102.86 107.745 103.133C106.903 105.213 105.32 106.446 102.996 106.831C109.744 108.018 115.237 108.069 114.692 102.654C115.252 104.888 116.696 106.302 118.872 107.037C120.782 106.147 121.703 104.801 121.638 102.997C122.103 105.167 123.568 106.324 125.536 106.968C127.287 106.249 128.168 104.846 128.654 103.133C128.762 105.129 129.777 106.589 131.702 107.516C133.956 106.52 135.299 105.045 135.812 103.133C136.075 105.139 136.759 106.74 138.364 107.448C140.511 106.755 141.87 105.253 142.83 103.339C142.239 107.843 146.349 108.945 153.674 107.722C151.751 106.925 150.099 105.984 150.342 104.025C151.265 103.818 152.185 103.612 153.108 103.408C149.934 102.742 148.326 101.11 147.792 98.8188C149.02 98.6144 150.248 98.4083 151.478 98.2039C148.838 97.2077 146.736 95.7444 145.516 93.5151C141.927 94.051 138.997 93.6113 136.726 92.1961C136.425 95.0128 134.974 97.1356 132.139 98.4203C129.203 97.2455 128.058 94.8891 128.135 91.7237C128.375 94.5662 127.391 96.6616 124.621 97.6663C121.679 97.0223 120.595 94.7019 120.034 91.9127C116.884 93.2403 114.237 93.5031 111.846 93.2214Z" fill="#FDC900" stroke="#151616" stroke-width="1.787"/>
<path fill-rule="evenodd" clip-rule="evenodd" d="M107.635 92.1961C111.147 93.4207 114.932 94.0647 120.033 91.9127C120.595 94.7019 121.679 97.0223 124.621 97.6663C127.391 96.6616 128.375 94.5662 128.135 91.7238C128.058 94.8891 129.203 97.2455 132.138 98.4203C134.974 97.1356 136.425 95.0128 136.726 92.1961C139.967 94.2176 144.556 94.2485 150.49 92.2905C138.885 90.3412 145.339 77.6728 137.605 68.9943C139.211 68.8174 140.604 67.9741 141.901 66.825C140.279 66.8937 138.699 66.8079 137.312 65.9766C139.364 65.0715 140.99 63.5309 142.193 61.3548C140.159 62.3406 138.206 62.466 136.336 61.7326C139.774 59.809 142.614 57.6123 142.974 54.2804C135.02 58.514 127.771 60.0083 121.399 58.1482C116.578 56.7398 112.354 58.6772 108.904 56.9219C108.65 58.4814 108.507 59.6338 108.416 60.6008C107.923 59.019 106.781 57.9404 105.194 57.2053C105.78 58.8713 105.596 60.5373 105.194 62.2032C104.914 60.4651 103.946 58.9091 102.462 57.4887C103.317 59.852 102.979 61.8769 101.972 63.7129C101.538 62.2118 100.622 61.0422 98.6539 60.6008C99.6604 61.9302 99.9145 63.4793 99.8252 65.1281C98.6092 65.1642 97.565 64.7692 96.8969 63.4295C98.106 64.9925 98.6608 66.5004 98.556 67.9569C92.6838 68.9668 89.5923 72.151 88.4038 76.8227C96.8488 71.1755 102.364 78.0009 111.734 75.8797C104.487 80.3556 97.9532 82.645 92.9913 80.1237C95.0592 83.5673 98.4358 85.4222 105.067 83.3183C107.595 82.5162 112.312 79.8661 113.318 84.2234C113.883 86.6743 111.939 90.2999 107.635 92.1961Z" fill="#FDC900" stroke="#151616" stroke-width="1.5"/>
<path d="M98.5562 67.9568C98.5562 67.9568 102.084 67.4605 104.456 69.3738" stroke="#151616" stroke-width="1.787"/>
<path fill-rule="evenodd" clip-rule="evenodd" d="M96.4778 76.7213C96.4778 76.7213 97.3898 80.012 101.277 77.556C102.57 76.7384 103.379 76.2335 103.988 75.9209C106.338 76.3382 108.854 76.5323 111.734 75.8797C111.199 76.2112 110.664 76.5306 110.135 76.8363C103.039 79.4933 96.9209 81.1146 96.4778 76.7213Z" fill="#FDC900" stroke="#151616" stroke-width="1.787"/>
<path fill-rule="evenodd" clip-rule="evenodd" d="M124.633 97.9239C124.633 97.9239 125.603 101.534 121.637 102.997Z" fill="#FDC900"/>
<path d="M124.633 97.9239C124.633 97.9239 125.603 101.534 121.637 102.997" stroke="#151616" stroke-width="1.787"/>
<path fill-rule="evenodd" clip-rule="evenodd" d="M132.138 98.4202C132.138 98.4202 132.731 102.139 128.654 103.133Z" fill="#FDC900"/>
<path d="M132.138 98.4202C132.138 98.4202 132.731 102.139 128.654 103.133" stroke="#151616" stroke-width="1.787"/>
<path fill-rule="evenodd" clip-rule="evenodd" d="M140.158 98.3945C140.158 98.3945 140.257 102.194 135.812 103.133Z" fill="#FDC900"/>
<path d="M140.158 98.3945C140.158 98.3945 140.257 102.194 135.812 103.133" stroke="#151616" stroke-width="1.787"/>
<path fill-rule="evenodd" clip-rule="evenodd" d="M136.673 92.6083C136.673 92.6083 137.619 101.562 147.792 98.8188Z" fill="#FDC900"/>
<path d="M136.673 92.6083C136.673 92.6083 137.619 101.562 147.792 98.8188" stroke="#151616" stroke-width="1.787"/>
<path fill-rule="evenodd" clip-rule="evenodd" d="M140.158 98.3945C140.158 98.3945 139.127 106.511 150.342 104.024Z" fill="#FDC900"/>
<path d="M140.158 98.3945C140.158 98.3945 139.127 106.511 150.342 104.024" stroke="#151616" stroke-width="1.787"/>
<path fill-rule="evenodd" clip-rule="evenodd" d="M132.139 98.4202C132.139 98.4202 131.926 103.076 135.812 103.133Z" fill="#FDC900"/>
<path d="M132.139 98.4202C132.139 98.4202 131.926 103.076 135.812 103.133" stroke="#151616" stroke-width="1.787"/>
<path fill-rule="evenodd" clip-rule="evenodd" d="M117.091 97.8826C117.091 97.8826 117.727 103.243 121.638 102.997Z" fill="#FDC900"/>
<path d="M117.091 97.8826C117.091 97.8826 117.727 103.243 121.638 102.997" stroke="#151616" stroke-width="1.787"/>
<path fill-rule="evenodd" clip-rule="evenodd" d="M124.621 97.6663C124.621 97.6663 124.628 102.525 128.654 103.133Z" fill="#FDC900"/>
<path d="M124.621 97.6663C124.621 97.6663 124.628 102.525 128.654 103.133" stroke="#151616" stroke-width="1.787"/>
<path fill-rule="evenodd" clip-rule="evenodd" d="M107.745 103.133C107.745 103.133 116.966 105.697 117.091 97.8827Z" fill="#FDC900"/>
<path d="M107.745 103.133C107.745 103.133 116.966 105.697 117.091 97.8827" stroke="#151616" stroke-width="1.787"/>
<path fill-rule="evenodd" clip-rule="evenodd" d="M109.091 97.9979C109.091 97.9979 118.539 101.072 120.473 93.6131Z" fill="#FDC900"/>
<path d="M109.091 97.9979C109.091 97.9979 118.539 101.072 120.473 93.6131" stroke="#151616" stroke-width="1.787"/>
<path fill-rule="evenodd" clip-rule="evenodd" d="M111.073 67.3248C111.073 67.3248 111.898 68.5064 112.21 68.2179C112.523 67.931 112.567 67.5704 112.567 67.5704C112.567 67.5704 112.571 68.5116 113.533 68.1612C114.496 67.8091 114.962 67.1238 115.243 66.6343C115.527 66.1466 116.157 65.0302 116.368 64.9254C116.581 64.8224 114.802 65.3531 114.263 65.9748C113.722 66.5948 112.148 67.0551 111.819 67.1444C111.491 67.2337 111.073 67.3248 111.073 67.3248Z" fill="#151616" stroke="#151616" stroke-width="1.822" stroke-linecap="round" stroke-linejoin="round"/>
<path d="M108.596 67.2441C108.596 67.2441 110.223 67.8332 112.512 66.9006C114.802 65.9662 115.362 64.7382 116.938 64.934C118.515 65.1315 118.972 65.8683 118.972 65.8683" stroke="#151616" stroke-width="1.822" stroke-linecap="round" stroke-linejoin="round"/>
<path d="M110.783 69.2106C110.783 69.2106 111.649 71.1256 113.936 69.3566C116.226 67.5876 116.073 65.0817 118.209 65.5729" stroke="#151616" stroke-width="1.5" stroke-linecap="round" stroke-linejoin="round"/>
<path d="M110.326 71.519C110.326 71.519 111.903 70.9299 111.851 72.1098C111.8 73.288 112.106 74.5659 113.682 73.6814C115.259 72.7968 117.701 72.5031 117.751 73.8789C117.802 75.2546 116.786 75.5981 115.463 76.6303C114.141 77.6625 112.717 79.4316 113.072 80.3161" stroke="#151616" stroke-width="1.5" stroke-linecap="round" stroke-linejoin="round"/>
<path d="M102.137 66.655C102.137 66.655 102.492 67.8332 104.323 67.7851C106.154 67.7353 107.477 68.9633 104.782 70.1432" stroke="#151616" stroke-width="1.822" stroke-linecap="round" stroke-linejoin="round"/>
<path d="M108.291 65.3273C108.291 65.3273 109.766 66.4093 111.698 65.3771C113.632 64.3449 115.767 62.9194 118.362 63.4106" stroke="#151616" stroke-width="1.5" stroke-linecap="round" stroke-linejoin="round"/>
<path d="M128.841 76.5804C128.841 76.5804 133.724 75.8934 129.806 73.3876" stroke="#151616" stroke-width="1.822" stroke-linecap="round" stroke-linejoin="round"/>
<path d="M128.942 70.3408C128.942 70.3408 131.536 69.7499 132.451 70.6344C133.366 71.519 132.147 73.288 129.806 73.3876" stroke="#151616" stroke-width="1.822" stroke-linecap="round" stroke-linejoin="round"/>
<path d="M124.262 76.876C124.262 76.876 129.959 81.2505 128.841 76.5806" stroke="#151616" stroke-width="1.822" stroke-linecap="round" stroke-linejoin="round"/>
<path d="M126.907 67.0963C126.907 67.0963 127.67 65.0817 130.06 65.1796C132.451 65.2792 132.757 68.0787 128.942 70.3407" stroke="#151616" stroke-width="1.822" stroke-linecap="round" stroke-linejoin="round"/>
<path fill-rule="evenodd" clip-rule="evenodd" d="M83.1826 130.428V127.565H88.8728V133.437C87.7839 134.292 86.8203 134.879 85.9822 135.187C85.144 135.499 84.1513 135.652 83.0023 135.652C81.5871 135.652 80.4346 135.374 79.5432 134.816C78.6501 134.261 77.9597 133.43 77.4702 132.327C76.979 131.223 76.7317 129.959 76.7317 128.532C76.7317 127.029 77.0013 125.72 77.5372 124.607C78.0748 123.498 78.8614 122.654 79.8971 122.075C80.7043 121.631 81.7915 121.409 83.1569 121.409C84.4725 121.409 85.4583 121.546 86.1127 121.823C86.7654 122.098 87.3064 122.525 87.7392 123.106C88.1703 123.683 88.4949 124.418 88.7113 125.31L85.1578 126.041C85.0118 125.521 84.761 125.122 84.4124 124.848C84.0654 124.571 83.6189 124.434 83.0762 124.434C82.2689 124.434 81.6249 124.758 81.1457 125.406C80.6648 126.057 80.4243 127.08 80.4243 128.485C80.4243 129.976 80.6682 131.041 81.1526 131.68C81.6369 132.317 82.3136 132.638 83.1826 132.638C83.5931 132.638 83.9864 132.568 84.3591 132.43C84.7336 132.291 85.1647 132.058 85.6438 131.726V130.428H83.1826ZM91.054 121.643H100.923V124.585H94.7449V126.775H100.476V129.584H94.7449V132.298H101.103V135.419H91.054V121.643ZM103.135 135.419V121.643H109.275C110.412 121.643 111.285 121.756 111.884 121.983C112.487 122.208 112.971 122.625 113.34 123.238C113.71 123.846 113.893 124.592 113.893 125.466C113.893 126.234 113.751 126.89 113.471 127.446C113.188 128.001 112.799 128.449 112.308 128.796C111.992 129.014 111.561 129.196 111.015 129.337C111.453 129.507 111.772 129.677 111.975 129.847C112.109 129.959 112.305 130.201 112.564 130.569C112.822 130.941 112.993 131.223 113.079 131.426L114.862 135.419H110.699L108.731 131.207C108.482 130.665 108.258 130.309 108.061 130.146C107.798 129.935 107.496 129.828 107.159 129.828H106.834V135.419H103.135ZM106.834 127.225H108.389C108.555 127.225 108.88 127.163 109.363 127.037C109.608 126.981 109.807 126.836 109.962 126.605C110.115 126.374 110.194 126.108 110.194 125.806C110.194 125.361 110.07 125.021 109.826 124.784C109.582 124.542 109.124 124.423 108.452 124.423H106.834V127.225ZM116.186 121.643H119.877V135.419H116.186V121.643ZM122.544 121.643H125.986L130.474 129.263V121.643H133.947V135.419H130.474L126.009 127.855V135.419H122.544V121.643ZM136.441 121.643H141.915C142.991 121.643 143.864 121.813 144.529 122.149C145.192 122.489 145.743 122.974 146.176 123.606C146.608 124.241 146.921 124.975 147.119 125.816C147.313 126.656 147.411 127.544 147.411 128.485C147.411 129.957 147.266 131.099 146.974 131.91C146.686 132.721 146.284 133.401 145.767 133.947C145.253 134.495 144.702 134.861 144.11 135.043C143.302 135.293 142.569 135.419 141.915 135.419H136.441V121.643ZM140.125 124.763V132.288H141.027C141.798 132.288 142.344 132.192 142.67 131.992C142.995 131.798 143.249 131.451 143.436 130.96C143.618 130.469 143.711 129.67 143.711 128.568C143.711 127.109 143.505 126.112 143.094 125.572C142.681 125.033 141.997 124.763 141.044 124.763H140.125ZM149.394 135.419V121.643H155.534C156.671 121.643 157.544 121.756 158.143 121.983C158.746 122.208 159.23 122.625 159.6 123.238C159.969 123.846 160.153 124.592 160.153 125.466C160.153 126.234 160.01 126.89 159.73 127.446C159.449 128.001 159.059 128.449 158.568 128.796C158.251 129.014 157.822 129.196 157.274 129.337C157.712 129.507 158.032 129.677 158.234 129.847C158.368 129.959 158.564 130.201 158.823 130.569C159.081 130.941 159.253 131.223 159.339 131.426L161.121 135.419H156.958L154.99 131.207C154.741 130.665 154.518 130.309 154.322 130.146C154.057 129.935 153.755 129.828 153.418 129.828H153.096V135.419H149.394ZM153.096 127.225H154.648C154.815 127.225 155.139 127.163 155.624 127.037C155.868 126.981 156.067 126.836 156.223 126.605C156.376 126.374 156.453 126.108 156.453 125.806C156.453 125.361 156.331 125.021 156.086 124.784C155.842 124.542 155.385 124.423 154.712 124.423H153.096V127.225ZM169.633 133.145H165.438L164.86 135.419H161.097L165.577 121.643H169.592L174.075 135.419H170.219L169.633 133.145ZM168.862 130.165L167.543 125.213L166.234 130.165H168.862Z" fill="#DD2B1C"/>
<path d="M83.1826 130.428V127.565H88.8728V133.437C87.7839 134.292 86.8203 134.879 85.9822 135.187C85.144 135.499 84.1513 135.652 83.0023 135.652C81.5871 135.652 80.4346 135.374 79.5432 134.816C78.6501 134.261 77.9597 133.43 77.4702 132.327C76.979 131.223 76.7317 129.959 76.7317 128.532C76.7317 127.029 77.0013 125.72 77.5372 124.607C78.0748 123.498 78.8614 122.654 79.8971 122.075C80.7043 121.631 81.7915 121.409 83.1569 121.409C84.4725 121.409 85.4583 121.546 86.1127 121.823C86.7654 122.098 87.3064 122.525 87.7392 123.106C88.1703 123.683 88.4949 124.418 88.7113 125.309L85.1578 126.041C85.0118 125.521 84.761 125.122 84.4124 124.847C84.0654 124.571 83.6189 124.434 83.0762 124.434C82.2689 124.434 81.6249 124.758 81.1457 125.406C80.6648 126.057 80.4243 127.08 80.4243 128.485C80.4243 129.976 80.6682 131.041 81.1526 131.68C81.6369 132.317 82.3136 132.638 83.1826 132.638C83.5931 132.638 83.9864 132.568 84.3591 132.43C84.7336 132.291 85.1647 132.058 85.6438 131.726V130.428H83.1826ZM91.054 121.643H100.923V124.585H94.7449V126.775H100.476V129.584H94.7449V132.298H101.103V135.419H91.054V121.643ZM103.135 135.419V121.643H109.275C110.412 121.643 111.285 121.756 111.884 121.983C112.487 122.208 112.971 122.625 113.34 123.238C113.71 123.846 113.893 124.592 113.893 125.466C113.893 126.234 113.751 126.89 113.471 127.446C113.188 128.001 112.799 128.449 112.308 128.796C111.992 129.014 111.561 129.196 111.015 129.337C111.453 129.507 111.772 129.677 111.975 129.847C112.109 129.959 112.305 130.201 112.564 130.568C112.822 130.941 112.993 131.223 113.079 131.426L114.862 135.419H110.699L108.731 131.207C108.482 130.665 108.258 130.309 108.061 130.146C107.798 129.935 107.496 129.828 107.159 129.828H106.834V135.419H103.135ZM106.834 127.225H108.389C108.555 127.225 108.88 127.163 109.363 127.037C109.608 126.981 109.807 126.836 109.962 126.604C110.115 126.374 110.194 126.108 110.194 125.806C110.194 125.361 110.07 125.021 109.826 124.784C109.582 124.542 109.124 124.423 108.452 124.423H106.834V127.225ZM116.186 121.643H119.877V135.419H116.186V121.643ZM122.544 121.643H125.986L130.474 129.263V121.643H133.947V135.419H130.474L126.009 127.855V135.419H122.544V121.643ZM136.441 121.643H141.915C142.991 121.643 143.864 121.813 144.529 122.149C145.192 122.489 145.743 122.974 146.176 123.606C146.608 124.241 146.921 124.975 147.119 125.816C147.313 126.656 147.411 127.544 147.411 128.485C147.411 129.957 147.266 131.099 146.974 131.91C146.686 132.721 146.284 133.401 145.767 133.947C145.253 134.495 144.702 134.861 144.11 135.043C143.302 135.293 142.569 135.419 141.915 135.419H136.441V121.643ZM140.125 124.763V132.288H141.027C141.798 132.288 142.344 132.192 142.67 131.992C142.995 131.798 143.249 131.451 143.436 130.96C143.618 130.469 143.711 129.67 143.711 128.568C143.711 127.109 143.505 126.112 143.094 125.572C142.681 125.033 141.997 124.763 141.044 124.763H140.125ZM149.394 135.419V121.643H155.534C156.671 121.643 157.544 121.756 158.143 121.983C158.746 122.208 159.23 122.625 159.6 123.238C159.969 123.846 160.153 124.592 160.153 125.466C160.153 126.234 160.01 126.89 159.73 127.446C159.449 128.001 159.059 128.449 158.568 128.796C158.251 129.014 157.822 129.196 157.274 129.337C157.712 129.507 158.032 129.677 158.234 129.847C158.368 129.959 158.564 130.201 158.823 130.568C159.081 130.941 159.253 131.223 159.339 131.426L161.121 135.419H156.958L154.99 131.207C154.741 130.665 154.518 130.309 154.322 130.146C154.057 129.935 153.755 129.828 153.418 129.828H153.096V135.419H149.394ZM153.096 127.225H154.648C154.815 127.225 155.139 127.163 155.624 127.037C155.868 126.981 156.067 126.836 156.223 126.604C156.376 126.374 156.453 126.108 156.453 125.806C156.453 125.361 156.331 125.021 156.086 124.784C155.842 124.542 155.385 124.423 154.712 124.423H153.096V127.225ZM169.633 133.145H165.438L164.86 135.419H161.097L165.577 121.643H169.592L174.075 135.419H170.219L169.633 133.145ZM168.862 130.165L167.543 125.213L166.234 130.165H168.862Z" stroke="#151616" stroke-linecap="round" stroke-linejoin="round"/>
<path fill-rule="evenodd" clip-rule="evenodd" d="M78.4749 140.996V139.896H80.6579V142.15C80.2405 142.478 79.8713 142.705 79.5501 142.821C79.2289 142.942 78.8476 143 78.4062 143C77.8635 143 77.4204 142.894 77.0786 142.679C76.7351 142.466 76.4706 142.148 76.2834 141.724C76.0945 141.301 76 140.815 76 140.267C76 139.69 76.1031 139.189 76.3092 138.761C76.5153 138.335 76.8175 138.012 77.2143 137.791C77.5234 137.619 77.9408 137.535 78.4646 137.535C78.9696 137.535 79.3491 137.588 79.5999 137.693C79.8507 137.799 80.0585 137.963 80.2251 138.186C80.39 138.407 80.5136 138.689 80.5961 139.031L79.2341 139.311C79.1774 139.113 79.0812 138.96 78.9472 138.854C78.8133 138.747 78.6415 138.696 78.4354 138.696C78.1246 138.696 77.8772 138.82 77.6935 139.069C77.5097 139.318 77.4169 139.711 77.4169 140.25C77.4169 140.822 77.5097 141.231 77.6969 141.475C77.8824 141.72 78.1417 141.844 78.4749 141.844C78.6329 141.844 78.7841 141.817 78.9266 141.763C79.0709 141.71 79.2358 141.621 79.4196 141.494V140.996H78.4749ZM81.496 137.624H85.2831V138.753H82.9113V139.594H85.1114V140.673H82.9113V141.714H85.3518V142.911H81.496V137.624ZM86.1316 142.911V137.624H88.488C88.9242 137.624 89.2592 137.667 89.4876 137.755C89.7195 137.841 89.9067 138.002 90.0475 138.236C90.1901 138.471 90.2588 138.756 90.2588 139.091C90.2588 139.385 90.2055 139.639 90.0973 139.85C89.9891 140.063 89.8397 140.237 89.6508 140.369C89.5305 140.453 89.3656 140.523 89.1561 140.577C89.3227 140.642 89.4464 140.707 89.5237 140.772C89.5752 140.815 89.6508 140.908 89.7504 141.049C89.8483 141.191 89.9152 141.301 89.9479 141.379L90.6315 142.911H89.0342L88.2785 141.295C88.1823 141.087 88.0981 140.949 88.0226 140.887C87.9212 140.807 87.8044 140.766 87.6756 140.766H87.552V142.911H86.1316ZM87.552 139.766H88.1479C88.2115 139.766 88.3369 139.742 88.5224 139.696C88.6151 139.671 88.6924 139.617 88.7508 139.529C88.8109 139.44 88.8401 139.338 88.8401 139.221C88.8401 139.051 88.7937 138.921 88.6993 138.83C88.6048 138.737 88.4296 138.691 88.172 138.691H87.552V139.766ZM93.8982 142.038H92.2871L92.0656 142.911H90.6229L92.3421 137.624H93.8827L95.6019 142.911H94.1231L93.8982 142.038ZM93.601 140.894L93.0961 138.995L92.5946 140.894H93.601ZM96.0605 137.624H97.474V139.622L98.9562 137.624H100.835L99.1692 139.618L100.909 142.911H99.1692L98.2039 140.736L97.474 141.619V142.911H96.0605V137.624ZM104.193 142.038H102.582L102.36 142.911H100.916L102.635 137.624H104.176L105.897 142.911H104.416L104.193 142.038ZM103.896 140.894L103.389 138.995L102.888 140.894H103.896ZM106.357 137.624H107.678L109.4 140.549V137.624H110.733V142.911H109.4L107.686 140.008V142.911H106.357V137.624ZM113.859 137.624H115.276V142.911H113.859V137.624ZM116.3 137.624H117.619L119.341 140.549V137.624H120.674V142.911H119.341L117.627 140.008V142.911H116.3V137.624ZM121.631 137.624H123.731C124.145 137.624 124.48 137.689 124.734 137.818C124.988 137.949 125.2 138.136 125.366 138.378C125.533 138.622 125.653 138.904 125.729 139.227C125.803 139.548 125.84 139.89 125.84 140.25C125.84 140.814 125.785 141.252 125.674 141.564C125.562 141.875 125.408 142.136 125.21 142.346C125.013 142.557 124.801 142.696 124.575 142.766C124.264 142.863 123.984 142.911 123.731 142.911H121.631V137.624ZM123.044 138.821V141.71H123.391C123.687 141.71 123.896 141.672 124.022 141.597C124.147 141.521 124.243 141.389 124.315 141.2C124.386 141.011 124.42 140.705 124.42 140.281C124.42 139.721 124.343 139.338 124.185 139.132C124.025 138.926 123.764 138.821 123.396 138.821H123.044ZM126.405 140.271C126.405 139.407 126.613 138.735 127.029 138.256C127.446 137.775 128.025 137.535 128.767 137.535C129.53 137.535 130.115 137.77 130.527 138.243C130.94 138.715 131.146 139.378 131.146 140.228C131.146 140.845 131.055 141.353 130.876 141.748C130.696 142.143 130.435 142.45 130.096 142.67C129.755 142.89 129.332 143 128.824 143C128.308 143 127.881 142.906 127.542 142.717C127.206 142.526 126.931 142.225 126.72 141.813C126.51 141.403 126.405 140.887 126.405 140.271ZM127.819 140.278C127.819 140.812 127.905 141.195 128.077 141.428C128.248 141.66 128.482 141.777 128.777 141.777C129.081 141.777 129.317 141.664 129.483 141.435C129.648 141.207 129.732 140.796 129.732 140.207C129.732 139.708 129.645 139.345 129.471 139.115C129.298 138.887 129.062 138.771 128.765 138.771C128.48 138.771 128.252 138.887 128.078 139.12C127.907 139.354 127.819 139.74 127.819 140.278ZM131.915 137.624H133.236L134.959 140.549V137.624H136.291V142.911H134.959L133.245 140.008V142.911H131.915V137.624ZM137.227 137.624H141.015V138.753H138.643V139.594H140.843V140.673H138.643V141.714H141.083V142.911H137.227V137.624ZM141.598 141.162L142.943 141.064C142.971 141.317 143.031 141.509 143.12 141.641C143.266 141.856 143.474 141.961 143.745 141.961C143.946 141.961 144.103 141.908 144.211 141.798C144.321 141.688 144.374 141.562 144.374 141.418C144.374 141.281 144.322 141.157 144.219 141.049C144.115 140.941 143.874 140.839 143.495 140.743C142.875 140.582 142.433 140.369 142.169 140.103C141.902 139.835 141.769 139.495 141.769 139.082C141.769 138.809 141.837 138.552 141.973 138.311C142.11 138.069 142.315 137.88 142.588 137.741C142.863 137.604 143.237 137.535 143.713 137.535C144.297 137.535 144.743 137.66 145.051 137.911C145.358 138.162 145.54 138.562 145.599 139.11L144.266 139.199C144.23 138.962 144.156 138.789 144.043 138.68C143.929 138.574 143.773 138.519 143.574 138.519C143.409 138.519 143.285 138.559 143.203 138.639C143.118 138.72 143.077 138.818 143.077 138.935C143.077 139.017 143.112 139.093 143.179 139.16C143.246 139.23 143.404 139.294 143.654 139.355C144.273 139.508 144.714 139.665 144.982 139.823C145.248 139.981 145.444 140.175 145.566 140.408C145.686 140.64 145.748 140.901 145.748 141.191C145.748 141.53 145.666 141.842 145.504 142.128C145.343 142.414 145.116 142.631 144.824 142.778C144.534 142.926 144.166 143 143.723 143C142.945 143 142.406 142.828 142.107 142.481C141.806 142.134 141.638 141.696 141.598 141.162ZM146.514 137.624H147.931V142.911H146.514V137.624ZM151.761 142.038H150.15L149.928 142.911H148.484L150.203 137.624H151.744L153.465 142.911H151.986L151.761 142.038ZM151.464 140.894L150.959 138.995L150.456 140.894H151.464ZM156.067 142.911V137.624H158.423C158.859 137.624 159.194 137.667 159.425 137.755C159.655 137.841 159.842 138.002 159.983 138.236C160.125 138.471 160.196 138.756 160.196 139.091C160.196 139.385 160.141 139.639 160.034 139.85C159.924 140.063 159.775 140.237 159.586 140.369C159.466 140.453 159.301 140.523 159.091 140.577C159.258 140.642 159.382 140.707 159.459 140.772C159.51 140.815 159.586 140.908 159.686 141.049C159.783 141.191 159.85 141.301 159.883 141.379L160.567 142.911H158.969L158.214 141.295C158.117 141.087 158.033 140.949 157.958 140.887C157.856 140.807 157.74 140.766 157.611 140.766H157.487V142.911H156.067ZM157.487 139.766H158.083C158.147 139.766 158.272 139.742 158.458 139.696C158.55 139.671 158.628 139.617 158.688 139.529C158.746 139.44 158.775 139.338 158.775 139.221C158.775 139.051 158.729 138.921 158.634 138.83C158.54 138.737 158.365 138.691 158.107 138.691H157.487V139.766ZM163.833 142.038H162.222L162.002 142.911H160.558L162.277 137.624H163.818L165.537 142.911H164.058L163.833 142.038ZM163.538 140.894L163.031 138.995L162.53 140.894H163.538ZM164.986 137.624H166.556L167.478 139.409L168.402 137.624H169.963L168.184 140.697V142.911H166.767V140.697L164.986 137.624ZM172.63 142.038H171.019L170.798 142.911H169.353L171.073 137.624H172.615L174.334 142.911H172.855L172.63 142.038ZM172.333 140.894L171.828 138.995L171.325 140.894H172.333Z" fill="#151616"/>
</svg>
