<svg width="250" height="171" viewBox="0 0 250 171" fill="none" xmlns="http://www.w3.org/2000/svg">
<rect width="250" height="171" rx="20" fill="#F8F8F8"/>
<path fill-rule="evenodd" clip-rule="evenodd" d="M88 105.41H156.215V34H88V105.41Z" fill="#3C2B99"/>
<path fill-rule="evenodd" clip-rule="evenodd" d="M88 107.765H99.9338C102.53 107.765 104.478 108.381 105.771 109.62C107.064 110.854 107.713 112.617 107.713 114.895C107.713 117.243 107.01 119.077 105.598 120.397C104.186 121.717 102.033 122.376 99.1388 122.376H95.2111V131H88V107.765ZM95.2111 117.67H96.9693C98.3543 117.67 99.3228 117.432 99.8851 116.951C100.443 116.469 100.724 115.853 100.724 115.106C100.724 114.376 100.48 113.753 99.9934 113.25C99.512 112.742 98.5979 112.487 97.2559 112.487H95.2111V117.67ZM123.007 127.164H114.827L113.702 131H106.366L115.098 107.765H122.926L131.663 131H124.148L123.007 127.164ZM121.503 122.139L118.933 113.786L116.38 122.139H121.503ZM134.005 107.765H140.713L149.461 120.618V107.765H156.229V131H149.461L140.756 118.243V131H134.005V107.765Z" fill="#3C2B99"/>
<path fill-rule="evenodd" clip-rule="evenodd" d="M122.114 39.6103L123.369 56.9801L127.988 40.1887L125.83 57.4695L133.637 41.9022L128.149 58.4299L138.843 44.6848L130.236 59.8243L143.406 48.4294L132.01 61.5989L147.15 52.9919L133.405 63.6856L149.933 58.1981L134.365 66.0045L151.646 63.8466L134.855 68.4659L152.225 69.7209L134.855 70.9756L151.646 75.5952L134.365 73.437L149.933 81.2438L133.405 75.7558L147.15 86.4495L132.011 77.8425L143.406 91.0124L130.236 79.6172L138.843 94.757L128.149 81.0115L133.637 97.5396L125.83 81.9719L127.988 99.2531L123.369 82.4618L122.114 99.8316L120.859 82.4618L116.24 99.2531L118.398 81.9719L110.591 97.5396L116.079 81.0115L105.385 94.757L113.992 79.6172L100.823 91.0124L112.218 77.8425L97.0779 86.4495L110.823 75.7558L94.2953 81.2438L109.863 73.4374L92.5818 75.5952L109.373 70.9756L92.0034 69.7209L109.373 68.4663L92.5818 63.8466L109.863 66.0045L94.2953 58.1981L110.823 63.686L97.0779 52.9919L112.218 61.5994L100.823 48.4294L113.992 59.8247L105.385 44.6848L116.079 58.4303L110.591 41.9022L118.398 57.4695L116.24 40.1887L120.859 56.9801L122.114 39.6103Z" fill="white"/>
</svg>
