<svg width="250" height="171" viewBox="0 0 250 171" fill="none" xmlns="http://www.w3.org/2000/svg">
<rect width="250" height="171" rx="20" fill="#F8F8F8"/>
<path fill-rule="evenodd" clip-rule="evenodd" d="M125 36.5757C150.083 36.5757 170.424 56.9872 170.424 82.1558C170.424 107.325 150.083 127.736 125 127.736C99.9169 127.736 79.5757 107.325 79.5757 82.1558C79.5757 56.9872 99.9169 36.5757 125 36.5757Z" fill="#DD2B1C"/>
<path fill-rule="evenodd" clip-rule="evenodd" d="M125 34C138.247 34 150.248 39.3953 158.939 48.1166C167.626 56.8331 173 68.869 173 82.1558C173 95.4431 167.626 107.479 158.939 116.195C150.248 124.916 138.247 130.312 125 130.312C111.752 130.312 99.7519 124.916 91.0607 116.195C82.3739 107.479 77 95.4431 77 82.1558C77 68.869 82.3739 56.8331 91.0607 48.1166C99.7519 39.3953 111.752 34 125 34ZM155.297 51.7385C147.547 43.9622 136.835 39.1518 125 39.1518C113.164 39.1518 102.453 43.9626 94.7027 51.7385C86.9487 59.5196 82.1513 70.274 82.1513 82.1558C82.1513 94.0376 86.9487 104.792 94.7027 112.573C102.453 120.349 113.164 125.16 125 125.16C136.835 125.16 147.547 120.349 155.297 112.573C163.051 104.792 167.848 94.0376 167.848 82.1558C167.848 70.274 163.051 59.5196 155.297 51.7385Z" fill="#151616"/>
<path fill-rule="evenodd" clip-rule="evenodd" d="M119.001 55.4926C115.359 56.0229 111.71 56.9326 108.662 59.9015C106.4 62.9368 105.782 66.0022 108.608 69.0579C111.394 71.0011 113.944 71.1447 119.718 69.8545C121.918 69.346 124.49 69.7812 126.636 70.4193C129.119 71.1766 131.059 72.7235 132.456 75.678C136.714 74.2132 140.286 76.5623 142.629 80.4483C145.164 84.7886 152.756 86.4603 155.153 79.093C155.564 74.8753 154.203 71.5079 152.036 68.5267C154.547 69.7594 158.13 73.7344 158.95 79.7818C159.387 83.178 157.701 87.2674 154.899 89.9775C153.097 91.4685 151.458 92.1769 149.521 92.1577C149.375 94.9154 150.542 95.7281 152.084 95.3632C152.404 95.2877 152.769 95.0935 153.084 94.8918C152.994 95.3104 152.633 96.1934 152.275 96.4963C152.605 96.7861 153.166 97.0349 153.763 97.1707C150.744 100.287 144.968 101.003 142.641 97.8018C137.954 104.095 136.678 115.361 136.917 125.607C117.946 131.068 97.5114 126.145 85.211 102.53C83.6161 99.467 81.7816 95.279 81.3966 91.6374C92.3138 92.4855 105.341 89.0578 107.994 85.2932C105.48 84.5673 103.977 83.1418 103.166 81.5548C106.966 81.3841 108.619 80.6569 108.872 78.6199C101.978 74.6226 99.9374 70.0483 101.131 64.4719C103.266 59.7461 104.334 58.1228 108.951 55.9889C111.569 55.0575 115.124 54.3608 119.001 55.4926Z" fill="#151616"/>
<path fill-rule="evenodd" clip-rule="evenodd" d="M116.867 85.5001C117.658 86.4259 118.449 87.3517 119.24 88.2775C118.604 88.9086 118.874 89.5057 119.645 90.215C120.039 90.5563 120.669 90.6048 121.381 90.2451C122.191 90.6113 123.001 90.978 123.811 91.3446C121.852 92.1193 119.935 92.3594 117.909 90.7942C115.879 88.7449 116.139 87.0396 116.867 85.5001Z" fill="#DD2B1C" stroke="#DD2B1C" stroke-width="1.641"/>
<path fill-rule="evenodd" clip-rule="evenodd" d="M138.932 89.2351C137.818 89.8444 136.792 90.4241 135.678 91.0334C136.089 91.8404 135.522 92.3424 134.503 92.754C133.991 92.9443 133.522 92.8098 132.94 92.2328C132.004 92.3083 130.892 92.3546 129.956 92.4301C131.635 93.8133 133.313 94.65 135.883 93.85C138.628 92.5947 139.116 90.9295 138.932 89.2351Z" fill="#DD2B1C" stroke="#DD2B1C" stroke-width="1.641"/>
<path fill-rule="evenodd" clip-rule="evenodd" d="M126.103 105.067C126.646 105.15 127.189 105.113 127.733 105.023C128.129 104.837 128.503 104.64 129.254 104.632C130.898 105.148 131.768 106.593 132.253 108.674C132.349 109.954 131.99 110.515 130.754 110.347C129.826 110.13 128.993 109.768 128.385 109.261C126.053 108.57 123.458 108.67 122.061 109.282C121.187 109.529 120.567 109.449 120.214 109.087C119.852 108.771 119.272 107.953 119.518 107.109C119.852 106.399 120.8 104.571 123.821 103.893C124.364 103.842 124.9 104.895 125.516 104.98C125.712 105.009 125.908 105.038 126.103 105.067Z" fill="white" stroke="white" stroke-width="0.7093"/>
<path fill-rule="evenodd" clip-rule="evenodd" d="M122.169 110.804C122.52 110.059 123.2 109.475 125.234 109.543C126.416 109.551 127.376 109.855 128.211 110.325C128.37 110.557 128.529 110.789 128.689 111.021C128.754 111.579 128.436 111.97 128.037 112.216C126.965 112.383 126.023 112.462 124.864 112.368C123.725 112.189 122.736 111.851 122.234 111.172C122.162 111.075 122.227 110.909 122.169 110.804Z" fill="white" stroke="white" stroke-width="0.7093"/>
<path fill-rule="evenodd" clip-rule="evenodd" d="M122.474 105.871C122.672 106.083 122.857 106.412 123 106.613C123.343 106.858 123.767 107.242 124.13 107.569C124.221 107.701 124.214 107.843 124.046 108.038C123.72 108.165 123.389 108.233 123.153 108.138C122.695 108.124 122.361 107.813 122.061 107.326C121.929 107.16 121.745 106.735 121.757 106.392C121.742 106.204 122.083 105.769 122.474 105.871Z" fill="#151616" stroke="#151616" stroke-width="0.7093"/>
<path fill-rule="evenodd" clip-rule="evenodd" d="M128.963 107.148C129.061 106.933 129.147 106.713 129.22 106.484C129.329 106.175 129.449 106.037 129.586 105.96C129.878 105.823 130.144 105.915 130.385 106.236C130.539 106.462 130.605 106.703 130.542 106.967C130.379 107.314 130.165 107.637 129.862 107.921C129.511 108.207 129.124 108.375 128.659 108.327C128.501 108.328 128.274 108.178 128.277 108.022C128.356 107.798 128.524 107.57 128.782 107.368C128.842 107.294 128.903 107.221 128.963 107.148Z" fill="#151616"/>
<path d="M128.963 107.148C129.061 106.933 129.147 106.713 129.22 106.484C129.329 106.175 129.449 106.037 129.587 105.96C129.878 105.823 130.144 105.915 130.385 106.236C130.539 106.462 130.605 106.703 130.542 106.967C130.379 107.314 130.165 107.637 129.862 107.921C129.511 108.207 129.124 108.375 128.659 108.327C128.501 108.328 128.278 108.178 128.278 108.022C128.356 107.798 128.524 107.57 128.782 107.368C128.842 107.294 128.903 107.221 128.963 107.148Z" stroke="#151616" stroke-width="0.7093"/>
<path fill-rule="evenodd" clip-rule="evenodd" d="M88.7347 131.579H91.0882C91.7246 131.579 92.2157 131.634 92.5565 131.745C92.8996 131.857 93.1571 132.017 93.3278 132.226C93.5002 132.436 93.6176 132.691 93.6783 132.988C93.739 133.287 93.7691 133.748 93.7691 134.374L93.7695 135.244C93.7695 135.882 93.7106 136.348 93.5932 136.638C93.4736 136.931 93.2558 137.155 92.9393 137.313C92.6229 137.469 92.21 137.546 91.7002 137.546H91.073V141.57H88.7347V131.579ZM91.073 133.287V135.83C91.1393 135.834 91.196 135.836 91.2436 135.836C91.4597 135.836 91.6072 135.777 91.6906 135.661C91.7744 135.543 91.8158 135.299 91.8158 134.93V134.109C91.8158 133.768 91.7683 133.544 91.6718 133.443C91.5753 133.34 91.3763 133.287 91.073 133.287Z" fill="#151616"/>
<path fill-rule="evenodd" clip-rule="evenodd" d="M94.4421 131.579H96.1911C97.3203 131.579 98.0819 131.636 98.48 131.752C98.8781 131.868 99.181 132.055 99.3874 132.319C99.5961 132.582 99.7248 132.876 99.7777 133.199C99.8292 133.521 99.8553 134.155 99.8553 135.103L99.8558 138.602C99.8558 139.499 99.8178 140.097 99.7401 140.4C99.6642 140.702 99.5337 140.94 99.3438 141.11C99.1544 141.281 98.9213 141.399 98.6446 141.468C98.3665 141.536 97.9492 141.57 97.3901 141.57H94.4421V131.579ZM96.7804 133.287V139.859C97.1156 139.859 97.3238 139.785 97.4019 139.636C97.4796 139.484 97.5171 139.076 97.5171 138.41L97.5176 134.528C97.5176 134.075 97.504 133.786 97.4796 133.658C97.453 133.531 97.394 133.437 97.3015 133.378C97.2085 133.319 97.0339 133.287 96.7804 133.287Z" fill="#151616"/>
<path fill-rule="evenodd" clip-rule="evenodd" d="M106.006 131.579H108.36C108.996 131.579 109.487 131.634 109.828 131.745C110.171 131.857 110.429 132.017 110.599 132.226C110.772 132.436 110.889 132.691 110.95 132.988C111.01 133.287 111.041 133.748 111.041 134.374V135.244C111.041 135.882 110.982 136.348 110.865 136.638C110.745 136.931 110.527 137.155 110.211 137.313C109.895 137.469 109.481 137.546 108.972 137.546H108.344V141.57H106.006V131.579ZM108.344 133.287V135.83C108.411 135.834 108.467 135.836 108.515 135.836C108.731 135.836 108.879 135.777 108.962 135.661C109.046 135.543 109.087 135.299 109.087 134.93V134.109C109.087 133.768 109.04 133.544 108.943 133.443C108.847 133.34 108.648 133.287 108.344 133.287Z" fill="#151616"/>
<path fill-rule="evenodd" clip-rule="evenodd" d="M111.714 131.579H115.611V133.578H114.052V135.472H115.511V137.374H114.052V139.571H115.767V141.57H111.714V131.579Z" fill="#151616"/>
<path fill-rule="evenodd" clip-rule="evenodd" d="M116.438 131.579H118.091C119.194 131.579 119.941 131.625 120.331 131.72C120.722 131.815 121.04 132.057 121.286 132.445C121.533 132.834 121.656 133.454 121.656 134.307C121.656 135.084 121.568 135.606 121.394 135.874C121.222 136.142 120.879 136.301 120.367 136.354C120.829 136.483 121.142 136.653 121.301 136.868C121.459 137.081 121.559 137.277 121.597 137.456C121.637 137.635 121.656 138.128 121.656 138.935V141.57H119.486V138.25C119.486 137.715 119.446 137.384 119.371 137.256C119.295 137.129 119.096 137.064 118.776 137.064V141.57H116.438V131.579ZM118.776 133.287V135.51C119.037 135.51 119.221 135.469 119.327 135.39C119.433 135.309 119.486 135.048 119.486 134.608L119.486 134.06C119.486 133.742 119.435 133.536 119.333 133.437C119.23 133.338 119.045 133.287 118.776 133.287Z" fill="#151616"/>
<path fill-rule="evenodd" clip-rule="evenodd" d="M125.419 131.579V138.256C125.419 139.255 125.409 139.899 125.391 140.183C125.371 140.47 125.288 140.729 125.138 140.959C124.989 141.188 124.784 141.348 124.528 141.437C124.271 141.525 123.882 141.57 123.365 141.57H122.194V139.823C122.334 139.836 122.437 139.843 122.499 139.843C122.666 139.843 122.797 139.796 122.893 139.705C122.99 139.615 123.045 139.505 123.06 139.372C123.075 139.242 123.081 138.985 123.081 138.608V131.579H125.419Z" fill="#151616"/>
<path fill-rule="evenodd" clip-rule="evenodd" d="M131.636 131.579V138.256C131.636 139.012 131.613 139.545 131.57 139.851C131.524 140.158 131.394 140.472 131.175 140.794C130.956 141.119 130.669 141.363 130.311 141.53C129.955 141.696 129.533 141.78 129.05 141.78C128.511 141.78 128.037 141.681 127.628 141.483C127.217 141.285 126.91 141.028 126.706 140.712C126.503 140.394 126.381 140.061 126.346 139.71C126.308 139.358 126.291 138.619 126.291 137.489V131.579H128.627V139.069C128.627 139.505 128.648 139.785 128.691 139.905C128.733 140.028 128.818 140.089 128.949 140.089C129.097 140.089 129.191 140.021 129.235 139.889C129.277 139.754 129.298 139.438 129.298 138.941L129.298 131.579H131.636Z" fill="#151616"/>
<path fill-rule="evenodd" clip-rule="evenodd" d="M136.576 131.579L137.914 141.57H135.52L135.405 139.773H134.565L134.427 141.57H132.007L133.196 131.579H136.576ZM135.338 138.004C135.219 136.872 135.102 135.474 134.982 133.812C134.746 135.722 134.598 137.119 134.539 138.004H135.338Z" fill="#151616"/>
<path fill-rule="evenodd" clip-rule="evenodd" d="M143.532 131.579V141.57H141.484L140.267 137.028V141.57H138.313V131.579H140.267L141.578 136.078V131.579H143.532Z" fill="#151616"/>
<path fill-rule="evenodd" clip-rule="evenodd" d="M149.832 135.257H147.496V134.349C147.496 133.778 147.473 133.42 147.43 133.275C147.384 133.131 147.28 133.06 147.113 133.06C146.967 133.06 146.871 133.121 146.817 133.245C146.766 133.367 146.74 133.686 146.74 134.195V138.989C146.74 139.438 146.766 139.733 146.817 139.876C146.871 140.017 146.973 140.089 147.128 140.089C147.299 140.089 147.415 140.009 147.477 139.849C147.538 139.686 147.568 139.375 147.568 138.909V137.725H147.096V136.207H149.832V141.57H148.362L148.146 140.853C147.987 141.163 147.786 141.392 147.543 141.548C147.301 141.702 147.015 141.78 146.685 141.78C146.293 141.78 145.925 141.673 145.584 141.462C145.241 141.249 144.982 140.988 144.804 140.674C144.625 140.363 144.515 140.034 144.47 139.691C144.426 139.347 144.404 138.831 144.404 138.145V135.177C144.404 134.222 144.449 133.529 144.542 133.098C144.635 132.664 144.9 132.268 145.339 131.91C145.777 131.549 146.344 131.368 147.041 131.368C147.725 131.368 148.294 131.524 148.744 131.838C149.196 132.15 149.491 132.523 149.627 132.952C149.764 133.382 149.832 134.006 149.832 134.825V135.257Z" fill="#151616"/>
<path fill-rule="evenodd" clip-rule="evenodd" d="M154.774 131.579L156.112 141.57H153.719L153.603 139.773H152.764L152.625 141.57H150.205L151.393 131.579H154.774ZM153.537 138.004C153.417 136.872 153.3 135.474 153.18 133.812C152.944 135.722 152.796 137.119 152.737 138.004H153.537Z" fill="#151616"/>
<path fill-rule="evenodd" clip-rule="evenodd" d="M161.73 131.579V141.57H159.682L158.465 137.028V141.57H156.512V131.579H158.465L159.776 136.078V131.579H161.73Z" fill="#151616"/>
<rect x="100.689" y="131.548" width="2.34651" height="10.0565" fill="#151616"/>
</svg>
