<svg width="250" height="171" viewBox="0 0 250 171" fill="none" xmlns="http://www.w3.org/2000/svg">
<rect width="250" height="171" rx="20" fill="#F8F8F8"/>
<path d="M173.347 34H84V134H173.347V34Z" fill="#00A759" stroke="black" stroke-width="4"/>
<path fill-rule="evenodd" clip-rule="evenodd" d="M99.5471 107.022L100.403 51.5376L108.956 40.7178L157.143 43.2145L157.713 111.184L111.523 112.849L99.5471 107.022Z" fill="#151616"/>
<path fill-rule="evenodd" clip-rule="evenodd" d="M125.013 109.428H129.539V107.342H125.013V109.428Z" fill="#FCD600"/>
<path fill-rule="evenodd" clip-rule="evenodd" d="M101.369 68.1712L101.386 71.8604L109.516 64.6485L156.039 64.4055V61.8301H108.791L101.369 68.1712Z" fill="#FCD600"/>
<path fill-rule="evenodd" clip-rule="evenodd" d="M101.187 101.285L101.177 104.335L110.04 109.916L115.488 109.915L115.669 107.43L110.963 107.45L101.187 101.285Z" fill="#FCD600"/>
<path fill-rule="evenodd" clip-rule="evenodd" d="M129.573 106.536V109.211L156.401 108.597L156.476 105.967L129.573 106.536Z" fill="#FCD600"/>
<path fill-rule="evenodd" clip-rule="evenodd" d="M110.51 93.5348C111.76 93.5348 112.773 95.3095 112.773 97.498C112.773 99.6869 111.76 101.461 110.51 101.461C109.261 101.461 108.247 99.6869 108.247 97.498C108.247 95.3091 109.261 93.5348 110.51 93.5348Z" fill="#FCD600"/>
<path fill-rule="evenodd" clip-rule="evenodd" d="M110.511 95.8249C111.038 95.8249 111.466 96.5739 111.466 97.498C111.466 98.4221 111.038 99.1715 110.511 99.1715C109.983 99.1715 109.555 98.4221 109.555 97.498C109.555 96.5739 109.983 95.8249 110.511 95.8249Z" fill="#151616"/>
<path fill-rule="evenodd" clip-rule="evenodd" d="M117.39 66.762H128.251C128.998 66.762 129.609 67.285 129.609 67.9245V88.6734C129.609 89.2672 129.082 89.7594 128.409 89.8276V99.1565C128.409 99.8804 127.801 100.472 127.057 100.472H118.948C118.203 100.472 117.596 99.8804 117.596 99.1565V89.8362H117.39C116.642 89.8362 116.032 89.3133 116.032 88.6734V67.9245C116.032 67.285 116.642 66.762 117.39 66.762Z" fill="#FCD600"/>
<path fill-rule="evenodd" clip-rule="evenodd" d="M136.635 67.4083H153.78C154.126 67.4083 154.409 67.677 154.409 68.0062V70.8017C154.409 71.1308 154.126 71.3996 153.78 71.3996H136.635C136.288 71.3996 136.005 71.1308 136.005 70.8017V68.0062C136.005 67.677 136.288 67.4083 136.635 67.4083Z" fill="#FCD600"/>
<path fill-rule="evenodd" clip-rule="evenodd" d="M127.554 111.591H130.491V109.814H127.554V111.591Z" fill="#FCD600"/>
<path fill-rule="evenodd" clip-rule="evenodd" d="M115.565 111.591H118.502V109.814H115.565V111.591Z" fill="#FCD600"/>
<path fill-rule="evenodd" clip-rule="evenodd" d="M123.028 111.591H127.554V109.814H123.028V111.591Z" fill="#FCD600"/>
<path fill-rule="evenodd" clip-rule="evenodd" d="M118.503 111.591H123.028V109.814H118.503V111.591Z" fill="#FCD600"/>
<path fill-rule="evenodd" clip-rule="evenodd" d="M115.962 109.428H120.487V107.342H115.962V109.428Z" fill="#FCD600"/>
<path fill-rule="evenodd" clip-rule="evenodd" d="M120.488 109.428H125.013V107.342H120.488V109.428Z" fill="#FCD600"/>
<path fill-rule="evenodd" clip-rule="evenodd" d="M122.79 107.033H127.315V104.947H122.79V107.033Z" fill="#FCD600"/>
<path fill-rule="evenodd" clip-rule="evenodd" d="M120.17 104.638H124.695V102.552H120.17V104.638Z" fill="#FCD600"/>
<path fill-rule="evenodd" clip-rule="evenodd" d="M118.265 107.033H122.79V104.947H118.265V107.033Z" fill="#FCD600"/>
<path fill-rule="evenodd" clip-rule="evenodd" d="M117.112 86.5061H128.25V88.0209H126.797V98.9558H123.214V88.0209H122.439V98.9558H118.856V88.0209H117.112V86.5061ZM119.388 89.3461H121.81V98.3403H119.388V89.3461ZM123.747 89.3461H126.168V98.3403H123.747V89.3461Z" fill="#151616"/>
<path fill-rule="evenodd" clip-rule="evenodd" d="M122.887 91.5944C123.645 91.5944 124.259 92.6699 124.259 93.997C124.259 95.3237 123.645 96.3996 122.887 96.3996C122.13 96.3996 121.516 95.3237 121.516 93.997C121.516 92.6699 122.13 91.5944 122.887 91.5944Z" fill="#151616"/>
<path fill-rule="evenodd" clip-rule="evenodd" d="M107.831 122.527V125.399C107.831 125.959 107.901 126.311 108.047 126.455C108.187 126.601 108.44 126.718 108.801 126.804C109.167 126.89 109.83 126.934 110.799 126.934V127.216H99.9231V126.934C100.914 126.934 101.582 126.89 101.938 126.799C102.288 126.71 102.535 126.595 102.681 126.452C102.821 126.309 102.891 125.959 102.891 125.399V118.679C102.891 118.119 102.821 117.767 102.681 117.621C102.535 117.475 102.288 117.361 101.927 117.275C101.571 117.186 100.903 117.144 99.9231 117.144V116.86H109.253C112.324 116.86 114.527 117.126 115.863 117.655C117.199 118.184 117.867 118.846 117.867 119.641C117.867 120.314 117.436 120.887 116.574 121.367C115.712 121.844 114.522 122.17 113.008 122.344C111.99 122.467 110.261 122.527 107.831 122.527ZM107.831 117.457V121.932C108.181 121.943 108.44 121.948 108.623 121.948C109.905 121.948 110.891 121.763 111.586 121.393C112.281 121.025 112.631 120.452 112.631 119.678C112.631 118.909 112.281 118.348 111.586 117.992C110.891 117.634 109.857 117.457 108.478 117.457H107.831ZM127.575 122.527V125.399C127.575 125.959 127.644 126.311 127.79 126.455C127.93 126.601 128.183 126.718 128.544 126.804C128.911 126.89 129.573 126.934 130.543 126.934V127.216H119.666V126.934C120.657 126.934 121.325 126.89 121.681 126.799C122.031 126.71 122.279 126.595 122.424 126.452C122.565 126.309 122.634 125.959 122.634 125.399V118.679C122.634 118.119 122.565 117.767 122.424 117.621C122.279 117.475 122.031 117.361 121.67 117.275C121.314 117.186 120.647 117.144 119.666 117.144V116.86H128.997C132.068 116.86 134.271 117.126 135.606 117.655C136.943 118.184 137.611 118.846 137.611 119.641C137.611 120.314 137.18 120.887 136.318 121.367C135.456 121.844 134.265 122.17 132.752 122.344C131.734 122.467 130.005 122.527 127.575 122.527ZM127.575 117.457V121.932C127.924 121.943 128.183 121.948 128.367 121.948C129.649 121.948 130.634 121.763 131.329 121.393C132.024 121.025 132.375 120.452 132.375 119.678C132.375 118.909 132.024 118.348 131.329 117.992C130.634 117.634 129.6 117.457 128.221 117.457H127.575ZM147.318 122.527V125.399C147.318 125.959 147.388 126.311 147.534 126.455C147.674 126.601 147.927 126.718 148.287 126.804C148.654 126.89 149.317 126.934 150.286 126.934V127.216H139.41V126.934C140.401 126.934 141.069 126.89 141.425 126.799C141.775 126.71 142.022 126.595 142.168 126.452C142.308 126.309 142.378 125.959 142.378 125.399V118.679C142.378 118.119 142.308 117.767 142.168 117.621C142.022 117.475 141.775 117.361 141.414 117.275C141.058 117.186 140.39 117.144 139.41 117.144V116.86H148.74C151.811 116.86 154.014 117.126 155.35 117.655C156.686 118.184 157.354 118.846 157.354 119.641C157.354 120.314 156.924 120.887 156.061 121.367C155.2 121.844 154.009 122.17 152.496 122.344C151.477 122.467 149.748 122.527 147.318 122.527ZM147.318 117.457V121.932C147.668 121.943 147.927 121.948 148.11 121.948C149.392 121.948 150.378 121.763 151.072 121.393C151.768 121.025 152.118 120.452 152.118 119.678C152.118 118.909 151.768 118.348 151.072 117.992C150.378 117.634 149.343 117.457 147.965 117.457H147.318Z" fill="#151616"/>
</svg>
