<svg width="12" height="9" viewBox="0 0 12 9" fill="none" xmlns="http://www.w3.org/2000/svg">
<path d="M8.85621 3.90063H1.5C1.34087 3.90063 1.18826 3.96385 1.07574 4.07637C0.963214 4.18889 0.9 4.3415 0.9 4.50063C0.9 4.65976 0.963214 4.81237 1.07574 4.9249C1.18826 5.03742 1.34087 5.10063 1.5 5.10063H8.85621L6.88002 7.0759L6.88 7.07592C6.76736 7.18856 6.70408 7.34133 6.70408 7.50063C6.70408 7.65993 6.76736 7.8127 6.88 7.92534C6.99264 8.03798 7.14541 8.10126 7.30471 8.10126C7.46401 8.10126 7.61678 8.03798 7.72942 7.92534L10.7293 4.92543C10.7852 4.8697 10.8295 4.80349 10.8598 4.73059C10.89 4.6577 10.9056 4.57955 10.9056 4.50063C10.9056 4.42171 10.89 4.34357 10.8598 4.27067C10.8295 4.19778 10.7852 4.13157 10.7293 4.07583L7.72942 1.07592C7.61678 0.963281 7.46401 0.9 7.30471 0.9C7.14541 0.9 6.99264 0.963281 6.88 1.07592C6.76736 1.18856 6.70408 1.34133 6.70408 1.50063C6.70408 1.65993 6.76736 1.8127 6.88 1.92534L6.88002 1.92536L8.85621 3.90063Z" fill="white" stroke="white" stroke-width="0.2"/>
</svg>
