<svg width="32" height="21" viewBox="0 0 72 41" fill="none" xmlns="http://www.w3.org/2000/svg">
    <path fill-rule="evenodd" clip-rule="evenodd" d="M72 1.5C72 2.32843 71.3284 3 70.5 3H1.5C0.671573 3 0 2.32843 0 1.5V1.5C0 0.671573 0.671572 0 1.5 0H70.5C71.3284 0 72 0.671573 72 1.5V1.5Z" fill="#ffffff"/>
    <path fill-rule="evenodd" clip-rule="evenodd" d="M72 20.5C72 21.3284 71.3284 22 70.5 22H1.5C0.671573 22 0 21.3284 0 20.5V20.5C0 19.6716 0.671572 19 1.5 19H70.5C71.3284 19 72 19.6716 72 20.5V20.5Z" fill="#ffffff"/>
    <path fill-rule="evenodd" clip-rule="evenodd" d="M72 39.5C72 40.3284 71.3284 41 70.5 41H1.5C0.671573 41 0 40.3284 0 39.5V39.5C0 38.6716 0.671572 38 1.5 38H70.5C71.3284 38 72 38.6716 72 39.5V39.5Z" fill="#ffffff"/>
</svg>
