<svg width="20" height="20" viewBox="0 0 14 14" fill="none" xmlns="http://www.w3.org/2000/svg">
<path d="M5.49887 8.00294e-08C6.54421 -0.00017821 7.56795 0.297544 8.45015 0.858287C9.33236 1.41903 10.0365 2.21957 10.4801 3.16612C10.9237 4.11267 11.0883 5.16603 10.9547 6.2028C10.8212 7.23956 10.3949 8.21679 9.72587 9.02L13.8529 13.146C13.9415 13.2342 13.9938 13.3524 13.9996 13.4772C14.0054 13.6021 13.9642 13.7246 13.8841 13.8206C13.804 13.9166 13.6909 13.9791 13.5671 13.9958C13.4432 14.0126 13.3175 13.9823 13.2149 13.911L13.1449 13.854L9.01888 9.727C8.34007 10.2921 7.53516 10.6854 6.67223 10.8736C5.80929 11.0619 4.91371 11.0395 4.06123 10.8085C3.20876 10.5774 2.42447 10.1445 1.77469 9.54624C1.12492 8.94801 0.628773 8.20208 0.328225 7.37156C0.0276763 6.54104 -0.0684359 5.65035 0.0480172 4.77483C0.16447 3.89931 0.490063 3.06471 0.997257 2.34163C1.50445 1.61855 2.17833 1.02825 2.96189 0.620658C3.74545 0.213069 4.61564 0.000180997 5.49887 8.00294e-08V8.00294e-08ZM5.49887 1C4.3054 1 3.16081 1.47411 2.31689 2.31802C1.47298 3.16193 0.998874 4.30653 0.998874 5.5C0.998874 6.69347 1.47298 7.83807 2.31689 8.68198C3.16081 9.52589 4.3054 10 5.49887 10C6.69235 10 7.83694 9.52589 8.68085 8.68198C9.52477 7.83807 9.99887 6.69347 9.99887 5.5C9.99887 4.30653 9.52477 3.16193 8.68085 2.31802C7.83694 1.47411 6.69235 1 5.49887 1Z" fill="white"/>
</svg>
