<svg width="378" height="131" viewBox="0 0 378 131" fill="none" xmlns="http://www.w3.org/2000/svg">
<g filter="url(#filter0_ddd)">
<path d="M346.051 41C346.051 24.4315 332.619 11 316.051 11H23C20.2386 11 18 13.2386 18 16V60.3826C18 76.9511 31.4315 90.3826 48 90.3826H341.051C343.812 90.3826 346.051 88.144 346.051 85.3826V41Z" fill="white"/>
</g>
<path d="M52.092 39.252C52.092 39.7747 51.966 40.2647 51.714 40.722C51.4713 41.1793 51.084 41.548 50.552 41.828C50.0293 42.108 49.3667 42.248 48.564 42.248H46.926V46H44.966V36.228H48.564C49.32 36.228 49.964 36.3587 50.496 36.62C51.028 36.8813 51.4247 37.2407 51.686 37.698C51.9567 38.1553 52.092 38.6733 52.092 39.252ZM48.48 40.666C49.0213 40.666 49.4227 40.5447 49.684 40.302C49.9453 40.05 50.076 39.7 50.076 39.252C50.076 38.3 49.544 37.824 48.48 37.824H46.926V40.666H48.48ZM60.6936 41.954C60.6936 42.234 60.6749 42.486 60.6376 42.71H54.9676C55.0142 43.27 55.2102 43.7087 55.5556 44.026C55.9009 44.3433 56.3256 44.502 56.8296 44.502C57.5576 44.502 58.0756 44.1893 58.3836 43.564H60.4976C60.2736 44.3107 59.8442 44.9267 59.2096 45.412C58.5749 45.888 57.7956 46.126 56.8716 46.126C56.1249 46.126 55.4529 45.9627 54.8556 45.636C54.2676 45.3 53.8056 44.8287 53.4696 44.222C53.1429 43.6153 52.9796 42.9153 52.9796 42.122C52.9796 41.3193 53.1429 40.6147 53.4696 40.008C53.7962 39.4013 54.2536 38.9347 54.8416 38.608C55.4296 38.2813 56.1062 38.118 56.8716 38.118C57.6089 38.118 58.2669 38.2767 58.8456 38.594C59.4336 38.9113 59.8862 39.364 60.2036 39.952C60.5302 40.5307 60.6936 41.198 60.6936 41.954ZM58.6636 41.394C58.6542 40.89 58.4722 40.4887 58.1176 40.19C57.7629 39.882 57.3289 39.728 56.8156 39.728C56.3302 39.728 55.9196 39.8773 55.5836 40.176C55.2569 40.4653 55.0562 40.8713 54.9816 41.394H58.6636ZM64.0842 35.64V46H62.1242V35.64H64.0842ZM65.5167 42.094C65.5167 41.31 65.6707 40.6147 65.9787 40.008C66.296 39.4013 66.7207 38.9347 67.2527 38.608C67.794 38.2813 68.396 38.118 69.0587 38.118C69.6374 38.118 70.1414 38.2347 70.5707 38.468C71.0094 38.7013 71.3594 38.9953 71.6207 39.35V38.244H73.5947V46H71.6207V44.866C71.3687 45.23 71.0187 45.5333 70.5707 45.776C70.132 46.0093 69.6234 46.126 69.0447 46.126C68.3914 46.126 67.794 45.958 67.2527 45.622C66.7207 45.286 66.296 44.8147 65.9787 44.208C65.6707 43.592 65.5167 42.8873 65.5167 42.094ZM71.6207 42.122C71.6207 41.646 71.5274 41.24 71.3407 40.904C71.154 40.5587 70.902 40.2973 70.5847 40.12C70.2674 39.9333 69.9267 39.84 69.5627 39.84C69.1987 39.84 68.8627 39.9287 68.5547 40.106C68.2467 40.2833 67.9947 40.5447 67.7987 40.89C67.612 41.226 67.5187 41.6273 67.5187 42.094C67.5187 42.5607 67.612 42.9713 67.7987 43.326C67.9947 43.6713 68.2467 43.9373 68.5547 44.124C68.872 44.3107 69.208 44.404 69.5627 44.404C69.9267 44.404 70.2674 44.3153 70.5847 44.138C70.902 43.9513 71.154 43.69 71.3407 43.354C71.5274 43.0087 71.6207 42.598 71.6207 42.122ZM76.503 37.32C76.1483 37.32 75.8543 37.2127 75.621 36.998C75.397 36.774 75.285 36.4987 75.285 36.172C75.285 35.8453 75.397 35.5747 75.621 35.36C75.8543 35.136 76.1483 35.024 76.503 35.024C76.8483 35.024 77.133 35.136 77.357 35.36C77.581 35.5747 77.693 35.8453 77.693 36.172C77.693 36.4987 77.581 36.774 77.357 36.998C77.133 37.2127 76.8483 37.32 76.503 37.32ZM77.469 47.274C77.469 48.1327 77.2543 48.7487 76.825 49.122C76.405 49.5047 75.7983 49.696 75.005 49.696H74.137V48.03H74.697C74.9956 48.03 75.2056 47.9693 75.327 47.848C75.4483 47.736 75.509 47.5493 75.509 47.288V38.244H77.469V47.274ZM78.9015 42.094C78.9015 41.31 79.0555 40.6147 79.3635 40.008C79.6808 39.4013 80.1055 38.9347 80.6375 38.608C81.1788 38.2813 81.7808 38.118 82.4435 38.118C83.0221 38.118 83.5261 38.2347 83.9555 38.468C84.3941 38.7013 84.7441 38.9953 85.0055 39.35V38.244H86.9795V46H85.0055V44.866C84.7535 45.23 84.4035 45.5333 83.9555 45.776C83.5168 46.0093 83.0081 46.126 82.4295 46.126C81.7761 46.126 81.1788 45.958 80.6375 45.622C80.1055 45.286 79.6808 44.8147 79.3635 44.208C79.0555 43.592 78.9015 42.8873 78.9015 42.094ZM85.0055 42.122C85.0055 41.646 84.9121 41.24 84.7255 40.904C84.5388 40.5587 84.2868 40.2973 83.9695 40.12C83.6521 39.9333 83.3115 39.84 82.9475 39.84C82.5835 39.84 82.2475 39.9287 81.9395 40.106C81.6315 40.2833 81.3795 40.5447 81.1835 40.89C80.9968 41.226 80.9035 41.6273 80.9035 42.094C80.9035 42.5607 80.9968 42.9713 81.1835 43.326C81.3795 43.6713 81.6315 43.9373 81.9395 44.124C82.2568 44.3107 82.5928 44.404 82.9475 44.404C83.3115 44.404 83.6521 44.3153 83.9695 44.138C84.2868 43.9513 84.5388 43.69 84.7255 43.354C84.9121 43.0087 85.0055 42.598 85.0055 42.122ZM90.8537 39.448C91.1057 39.0373 91.4324 38.7153 91.8337 38.482C92.2444 38.2487 92.7111 38.132 93.2337 38.132V40.19H92.7157C92.0997 40.19 91.6331 40.3347 91.3157 40.624C91.0077 40.9133 90.8537 41.4173 90.8537 42.136V46H88.8937V38.244H90.8537V39.448ZM95.5479 37.32C95.2026 37.32 94.9132 37.2127 94.6799 36.998C94.4559 36.774 94.3439 36.4987 94.3439 36.172C94.3439 35.8453 94.4559 35.5747 94.6799 35.36C94.9132 35.136 95.2026 35.024 95.5479 35.024C95.8932 35.024 96.1779 35.136 96.4019 35.36C96.6352 35.5747 96.7519 35.8453 96.7519 36.172C96.7519 36.4987 96.6352 36.774 96.4019 36.998C96.1779 37.2127 95.8932 37.32 95.5479 37.32ZM96.5139 38.244V46H94.5539V38.244H96.5139ZM107.33 40.988C107.881 41.0907 108.334 41.366 108.688 41.814C109.043 42.262 109.22 42.7753 109.22 43.354C109.22 43.8767 109.09 44.3387 108.828 44.74C108.576 45.132 108.208 45.44 107.722 45.664C107.237 45.888 106.663 46 106 46H101.786V36.228H105.818C106.481 36.228 107.05 36.3353 107.526 36.55C108.012 36.7647 108.376 37.0633 108.618 37.446C108.87 37.8287 108.996 38.2627 108.996 38.748C108.996 39.3173 108.842 39.7933 108.534 40.176C108.236 40.5587 107.834 40.8293 107.33 40.988ZM103.746 40.26H105.538C106.005 40.26 106.364 40.1573 106.616 39.952C106.868 39.7373 106.994 39.434 106.994 39.042C106.994 38.65 106.868 38.3467 106.616 38.132C106.364 37.9173 106.005 37.81 105.538 37.81H103.746V40.26ZM105.72 44.404C106.196 44.404 106.565 44.292 106.826 44.068C107.097 43.844 107.232 43.5267 107.232 43.116C107.232 42.696 107.092 42.3693 106.812 42.136C106.532 41.8933 106.154 41.772 105.678 41.772H103.746V44.404H105.72ZM112.742 39.448C112.994 39.0373 113.321 38.7153 113.722 38.482C114.133 38.2487 114.6 38.132 115.122 38.132V40.19H114.604C113.988 40.19 113.522 40.3347 113.204 40.624C112.896 40.9133 112.742 41.4173 112.742 42.136V46H110.782V38.244H112.742V39.448ZM119.887 46.126C119.14 46.126 118.468 45.9627 117.871 45.636C117.273 45.3 116.802 44.8287 116.457 44.222C116.121 43.6153 115.953 42.9153 115.953 42.122C115.953 41.3287 116.125 40.6287 116.471 40.022C116.825 39.4153 117.306 38.9487 117.913 38.622C118.519 38.286 119.196 38.118 119.943 38.118C120.689 38.118 121.366 38.286 121.973 38.622C122.579 38.9487 123.055 39.4153 123.401 40.022C123.755 40.6287 123.933 41.3287 123.933 42.122C123.933 42.9153 123.751 43.6153 123.387 44.222C123.032 44.8287 122.547 45.3 121.931 45.636C121.324 45.9627 120.643 46.126 119.887 46.126ZM119.887 44.418C120.241 44.418 120.573 44.334 120.881 44.166C121.198 43.9887 121.45 43.7273 121.637 43.382C121.823 43.0367 121.917 42.6167 121.917 42.122C121.917 41.3847 121.721 40.82 121.329 40.428C120.946 40.0267 120.475 39.826 119.915 39.826C119.355 39.826 118.883 40.0267 118.501 40.428C118.127 40.82 117.941 41.3847 117.941 42.122C117.941 42.8593 118.123 43.4287 118.487 43.83C118.86 44.222 119.327 44.418 119.887 44.418ZM124.866 42.094C124.866 41.31 125.02 40.6147 125.328 40.008C125.646 39.4013 126.07 38.9347 126.602 38.608C127.144 38.2813 127.746 38.118 128.408 38.118C128.987 38.118 129.491 38.2347 129.92 38.468C130.359 38.7013 130.709 38.9953 130.97 39.35V38.244H132.944V46H130.97V44.866C130.718 45.23 130.368 45.5333 129.92 45.776C129.482 46.0093 128.973 46.126 128.394 46.126C127.741 46.126 127.144 45.958 126.602 45.622C126.07 45.286 125.646 44.8147 125.328 44.208C125.02 43.592 124.866 42.8873 124.866 42.094ZM130.97 42.122C130.97 41.646 130.877 41.24 130.69 40.904C130.504 40.5587 130.252 40.2973 129.934 40.12C129.617 39.9333 129.276 39.84 128.912 39.84C128.548 39.84 128.212 39.9287 127.904 40.106C127.596 40.2833 127.344 40.5447 127.148 40.89C126.962 41.226 126.868 41.6273 126.868 42.094C126.868 42.5607 126.962 42.9713 127.148 43.326C127.344 43.6713 127.596 43.9373 127.904 44.124C128.222 44.3107 128.558 44.404 128.912 44.404C129.276 44.404 129.617 44.3153 129.934 44.138C130.252 43.9513 130.504 43.69 130.69 43.354C130.877 43.0087 130.97 42.598 130.97 42.122ZM134.355 42.094C134.355 41.31 134.509 40.6147 134.817 40.008C135.134 39.4013 135.563 38.9347 136.105 38.608C136.646 38.2813 137.248 38.118 137.911 38.118C138.415 38.118 138.895 38.23 139.353 38.454C139.81 38.6687 140.174 38.958 140.445 39.322V35.64H142.433V46H140.445V44.852C140.202 45.2347 139.861 45.5427 139.423 45.776C138.984 46.0093 138.475 46.126 137.897 46.126C137.243 46.126 136.646 45.958 136.105 45.622C135.563 45.286 135.134 44.8147 134.817 44.208C134.509 43.592 134.355 42.8873 134.355 42.094ZM140.459 42.122C140.459 41.646 140.365 41.24 140.179 40.904C139.992 40.5587 139.74 40.2973 139.423 40.12C139.105 39.9333 138.765 39.84 138.401 39.84C138.037 39.84 137.701 39.9287 137.393 40.106C137.085 40.2833 136.833 40.5447 136.637 40.89C136.45 41.226 136.357 41.6273 136.357 42.094C136.357 42.5607 136.45 42.9713 136.637 43.326C136.833 43.6713 137.085 43.9373 137.393 44.124C137.71 44.3107 138.046 44.404 138.401 44.404C138.765 44.404 139.105 44.3153 139.423 44.138C139.74 43.9513 139.992 43.69 140.179 43.354C140.365 43.0087 140.459 42.598 140.459 42.122ZM143.843 42.122C143.843 41.3193 144.006 40.6193 144.333 40.022C144.66 39.4153 145.112 38.9487 145.691 38.622C146.27 38.286 146.932 38.118 147.679 38.118C148.64 38.118 149.434 38.3607 150.059 38.846C150.694 39.322 151.118 39.994 151.333 40.862H149.219C149.107 40.526 148.916 40.2647 148.645 40.078C148.384 39.882 148.057 39.784 147.665 39.784C147.105 39.784 146.662 39.9893 146.335 40.4C146.008 40.8013 145.845 41.3753 145.845 42.122C145.845 42.8593 146.008 43.4333 146.335 43.844C146.662 44.2453 147.105 44.446 147.665 44.446C148.458 44.446 148.976 44.0913 149.219 43.382H151.333C151.118 44.222 150.694 44.8893 150.059 45.384C149.424 45.8787 148.631 46.126 147.679 46.126C146.932 46.126 146.27 45.9627 145.691 45.636C145.112 45.3 144.66 44.8333 144.333 44.236C144.006 43.6293 143.843 42.9247 143.843 42.122ZM152.265 42.094C152.265 41.31 152.419 40.6147 152.727 40.008C153.044 39.4013 153.469 38.9347 154.001 38.608C154.542 38.2813 155.144 38.118 155.807 38.118C156.385 38.118 156.889 38.2347 157.319 38.468C157.757 38.7013 158.107 38.9953 158.369 39.35V38.244H160.343V46H158.369V44.866C158.117 45.23 157.767 45.5333 157.319 45.776C156.88 46.0093 156.371 46.126 155.793 46.126C155.139 46.126 154.542 45.958 154.001 45.622C153.469 45.286 153.044 44.8147 152.727 44.208C152.419 43.592 152.265 42.8873 152.265 42.094ZM158.369 42.122C158.369 41.646 158.275 41.24 158.089 40.904C157.902 40.5587 157.65 40.2973 157.333 40.12C157.015 39.9333 156.675 39.84 156.311 39.84C155.947 39.84 155.611 39.9287 155.303 40.106C154.995 40.2833 154.743 40.5447 154.547 40.89C154.36 41.226 154.267 41.6273 154.267 42.094C154.267 42.5607 154.36 42.9713 154.547 43.326C154.743 43.6713 154.995 43.9373 155.303 44.124C155.62 44.3107 155.956 44.404 156.311 44.404C156.675 44.404 157.015 44.3153 157.333 44.138C157.65 43.9513 157.902 43.69 158.089 43.354C158.275 43.0087 158.369 42.598 158.369 42.122ZM165.225 46.126C164.59 46.126 164.021 46.014 163.517 45.79C163.013 45.5567 162.612 45.244 162.313 44.852C162.024 44.46 161.865 44.026 161.837 43.55H163.811C163.848 43.8487 163.993 44.096 164.245 44.292C164.506 44.488 164.828 44.586 165.211 44.586C165.584 44.586 165.874 44.5113 166.079 44.362C166.294 44.2127 166.401 44.0213 166.401 43.788C166.401 43.536 166.27 43.3493 166.009 43.228C165.757 43.0973 165.351 42.9573 164.791 42.808C164.212 42.668 163.736 42.5233 163.363 42.374C162.999 42.2247 162.682 41.996 162.411 41.688C162.15 41.38 162.019 40.9647 162.019 40.442C162.019 40.0127 162.14 39.6207 162.383 39.266C162.635 38.9113 162.99 38.6313 163.447 38.426C163.914 38.2207 164.46 38.118 165.085 38.118C166.009 38.118 166.746 38.3513 167.297 38.818C167.848 39.2753 168.151 39.896 168.207 40.68H166.331C166.303 40.372 166.172 40.1293 165.939 39.952C165.715 39.7653 165.412 39.672 165.029 39.672C164.674 39.672 164.399 39.7373 164.203 39.868C164.016 39.9987 163.923 40.1807 163.923 40.414C163.923 40.6753 164.054 40.876 164.315 41.016C164.576 41.1467 164.982 41.282 165.533 41.422C166.093 41.562 166.555 41.7067 166.919 41.856C167.283 42.0053 167.596 42.2387 167.857 42.556C168.128 42.864 168.268 43.2747 168.277 43.788C168.277 44.236 168.151 44.6373 167.899 44.992C167.656 45.3467 167.302 45.6267 166.835 45.832C166.378 46.028 165.841 46.126 165.225 46.126ZM172.168 39.854V43.606C172.168 43.8673 172.229 44.0587 172.35 44.18C172.481 44.292 172.695 44.348 172.994 44.348H173.904V46H172.672C171.02 46 170.194 45.1973 170.194 43.592V39.854H169.27V38.244H170.194V36.326H172.168V38.244H173.904V39.854H172.168ZM176.308 37.32C175.962 37.32 175.673 37.2127 175.44 36.998C175.216 36.774 175.104 36.4987 175.104 36.172C175.104 35.8453 175.216 35.5747 175.44 35.36C175.673 35.136 175.962 35.024 176.308 35.024C176.653 35.024 176.938 35.136 177.162 35.36C177.395 35.5747 177.512 35.8453 177.512 36.172C177.512 36.4987 177.395 36.774 177.162 36.998C176.938 37.2127 176.653 37.32 176.308 37.32ZM177.274 38.244V46H175.314V38.244H177.274ZM183.508 38.132C184.432 38.132 185.179 38.426 185.748 39.014C186.317 39.5927 186.602 40.4047 186.602 41.45V46H184.642V41.716C184.642 41.1 184.488 40.6287 184.18 40.302C183.872 39.966 183.452 39.798 182.92 39.798C182.379 39.798 181.949 39.966 181.632 40.302C181.324 40.6287 181.17 41.1 181.17 41.716V46H179.21V38.244H181.17V39.21C181.431 38.874 181.763 38.6127 182.164 38.426C182.575 38.23 183.023 38.132 183.508 38.132ZM191.504 38.118C192.083 38.118 192.591 38.2347 193.03 38.468C193.469 38.692 193.814 38.986 194.066 39.35V38.244H196.04V46.056C196.04 46.7747 195.895 47.414 195.606 47.974C195.317 48.5433 194.883 48.9913 194.304 49.318C193.725 49.654 193.025 49.822 192.204 49.822C191.103 49.822 190.197 49.5653 189.488 49.052C188.788 48.5387 188.391 47.8387 188.298 46.952H190.244C190.347 47.3067 190.566 47.5867 190.902 47.792C191.247 48.0067 191.663 48.114 192.148 48.114C192.717 48.114 193.179 47.9413 193.534 47.596C193.889 47.26 194.066 46.7467 194.066 46.056V44.852C193.814 45.216 193.464 45.5193 193.016 45.762C192.577 46.0047 192.073 46.126 191.504 46.126C190.851 46.126 190.253 45.958 189.712 45.622C189.171 45.286 188.741 44.8147 188.424 44.208C188.116 43.592 187.962 42.8873 187.962 42.094C187.962 41.31 188.116 40.6147 188.424 40.008C188.741 39.4013 189.166 38.9347 189.698 38.608C190.239 38.2813 190.841 38.118 191.504 38.118ZM194.066 42.122C194.066 41.646 193.973 41.24 193.786 40.904C193.599 40.5587 193.347 40.2973 193.03 40.12C192.713 39.9333 192.372 39.84 192.008 39.84C191.644 39.84 191.308 39.9287 191 40.106C190.692 40.2833 190.44 40.5447 190.244 40.89C190.057 41.226 189.964 41.6273 189.964 42.094C189.964 42.5607 190.057 42.9713 190.244 43.326C190.44 43.6713 190.692 43.9373 191 44.124C191.317 44.3107 191.653 44.404 192.008 44.404C192.372 44.404 192.713 44.3153 193.03 44.138C193.347 43.9513 193.599 43.69 193.786 43.354C193.973 43.0087 194.066 42.598 194.066 42.122ZM200.096 43.942L198.458 47.876H197.198L198.108 43.942H200.096ZM208.261 36.228C209.288 36.228 210.188 36.4287 210.963 36.83C211.747 37.2313 212.349 37.8053 212.769 38.552C213.198 39.2893 213.413 40.148 213.413 41.128C213.413 42.108 213.198 42.9667 212.769 43.704C212.349 44.432 211.747 44.9967 210.963 45.398C210.188 45.7993 209.288 46 208.261 46H204.845V36.228H208.261ZM208.191 44.334C209.218 44.334 210.011 44.054 210.571 43.494C211.131 42.934 211.411 42.1453 211.411 41.128C211.411 40.1107 211.131 39.3173 210.571 38.748C210.011 38.1693 209.218 37.88 208.191 37.88H206.805V44.334H208.191ZM222.006 39.252C222.006 39.7747 221.88 40.2647 221.628 40.722C221.385 41.1793 220.998 41.548 220.466 41.828C219.943 42.108 219.281 42.248 218.478 42.248H216.84V46H214.88V36.228H218.478C219.234 36.228 219.878 36.3587 220.41 36.62C220.942 36.8813 221.339 37.2407 221.6 37.698C221.871 38.1553 222.006 38.6733 222.006 39.252ZM218.394 40.666C218.935 40.666 219.337 40.5447 219.598 40.302C219.859 40.05 219.99 39.7 219.99 39.252C219.99 38.3 219.458 37.824 218.394 37.824H216.84V40.666H218.394ZM228.438 46L226.282 42.192H225.358V46H223.398V36.228H227.066C227.822 36.228 228.466 36.3633 228.998 36.634C229.53 36.8953 229.926 37.2547 230.188 37.712C230.458 38.16 230.594 38.664 230.594 39.224C230.594 39.868 230.407 40.4513 230.034 40.974C229.66 41.4873 229.105 41.842 228.368 42.038L230.706 46H228.438ZM225.358 40.722H226.996C227.528 40.722 227.924 40.596 228.186 40.344C228.447 40.0827 228.578 39.7233 228.578 39.266C228.578 38.818 228.447 38.4727 228.186 38.23C227.924 37.978 227.528 37.852 226.996 37.852H225.358V40.722ZM235.782 36.228C236.809 36.228 237.71 36.4287 238.484 36.83C239.268 37.2313 239.87 37.8053 240.29 38.552C240.72 39.2893 240.934 40.148 240.934 41.128C240.934 42.108 240.72 42.9667 240.29 43.704C239.87 44.432 239.268 44.9967 238.484 45.398C237.71 45.7993 236.809 46 235.782 46H232.366V36.228H235.782ZM235.712 44.334C236.739 44.334 237.532 44.054 238.092 43.494C238.652 42.934 238.932 42.1453 238.932 41.128C238.932 40.1107 238.652 39.3173 238.092 38.748C237.532 38.1693 236.739 37.88 235.712 37.88H234.326V44.334H235.712ZM251.253 46L247.697 41.646V46H245.737V36.228H247.697V40.61L251.253 36.228H253.619L249.587 41.072L253.731 46H251.253ZM254.517 42.094C254.517 41.31 254.671 40.6147 254.979 40.008C255.296 39.4013 255.721 38.9347 256.253 38.608C256.794 38.2813 257.396 38.118 258.059 38.118C258.637 38.118 259.141 38.2347 259.571 38.468C260.009 38.7013 260.359 38.9953 260.621 39.35V38.244H262.595V46H260.621V44.866C260.369 45.23 260.019 45.5333 259.571 45.776C259.132 46.0093 258.623 46.126 258.045 46.126C257.391 46.126 256.794 45.958 256.253 45.622C255.721 45.286 255.296 44.8147 254.979 44.208C254.671 43.592 254.517 42.8873 254.517 42.094ZM260.621 42.122C260.621 41.646 260.527 41.24 260.341 40.904C260.154 40.5587 259.902 40.2973 259.585 40.12C259.267 39.9333 258.927 39.84 258.563 39.84C258.199 39.84 257.863 39.9287 257.555 40.106C257.247 40.2833 256.995 40.5447 256.799 40.89C256.612 41.226 256.519 41.6273 256.519 42.094C256.519 42.5607 256.612 42.9713 256.799 43.326C256.995 43.6713 257.247 43.9373 257.555 44.124C257.872 44.3107 258.208 44.404 258.563 44.404C258.927 44.404 259.267 44.3153 259.585 44.138C259.902 43.9513 260.154 43.69 260.341 43.354C260.527 43.0087 260.621 42.598 260.621 42.122ZM266.469 39.378C266.721 39.0047 267.066 38.7013 267.505 38.468C267.953 38.2347 268.462 38.118 269.031 38.118C269.694 38.118 270.291 38.2813 270.823 38.608C271.364 38.9347 271.789 39.4013 272.097 40.008C272.414 40.6053 272.573 41.3007 272.573 42.094C272.573 42.8873 272.414 43.592 272.097 44.208C271.789 44.8147 271.364 45.286 270.823 45.622C270.291 45.958 269.694 46.126 269.031 46.126C268.452 46.126 267.944 46.014 267.505 45.79C267.076 45.5567 266.73 45.258 266.469 44.894V46H264.509V35.64H266.469V39.378ZM270.571 42.094C270.571 41.6273 270.473 41.226 270.277 40.89C270.09 40.5447 269.838 40.2833 269.521 40.106C269.213 39.9287 268.877 39.84 268.513 39.84C268.158 39.84 267.822 39.9333 267.505 40.12C267.197 40.2973 266.945 40.5587 266.749 40.904C266.562 41.2493 266.469 41.6553 266.469 42.122C266.469 42.5887 266.562 42.9947 266.749 43.34C266.945 43.6853 267.197 43.9513 267.505 44.138C267.822 44.3153 268.158 44.404 268.513 44.404C268.877 44.404 269.213 44.3107 269.521 44.124C269.838 43.9373 270.09 43.6713 270.277 43.326C270.473 42.9807 270.571 42.57 270.571 42.094ZM281.319 38.244V46H279.345V45.02C279.093 45.356 278.762 45.622 278.351 45.818C277.95 46.0047 277.511 46.098 277.035 46.098C276.429 46.098 275.892 45.972 275.425 45.72C274.959 45.4587 274.59 45.0807 274.319 44.586C274.058 44.082 273.927 43.4847 273.927 42.794V38.244H275.887V42.514C275.887 43.13 276.041 43.606 276.349 43.942C276.657 44.2687 277.077 44.432 277.609 44.432C278.151 44.432 278.575 44.2687 278.883 43.942C279.191 43.606 279.345 43.13 279.345 42.514V38.244H281.319ZM285.213 39.364C285.465 39.0093 285.81 38.7153 286.249 38.482C286.697 38.2393 287.206 38.118 287.775 38.118C288.438 38.118 289.035 38.2813 289.567 38.608C290.108 38.9347 290.533 39.4013 290.841 40.008C291.158 40.6053 291.317 41.3007 291.317 42.094C291.317 42.8873 291.158 43.592 290.841 44.208C290.533 44.8147 290.108 45.286 289.567 45.622C289.035 45.958 288.438 46.126 287.775 46.126C287.206 46.126 286.702 46.0093 286.263 45.776C285.834 45.5427 285.484 45.2487 285.213 44.894V49.696H283.253V38.244H285.213V39.364ZM289.315 42.094C289.315 41.6273 289.217 41.226 289.021 40.89C288.834 40.5447 288.582 40.2833 288.265 40.106C287.957 39.9287 287.621 39.84 287.257 39.84C286.902 39.84 286.566 39.9333 286.249 40.12C285.941 40.2973 285.689 40.5587 285.493 40.904C285.306 41.2493 285.213 41.6553 285.213 42.122C285.213 42.5887 285.306 42.9947 285.493 43.34C285.689 43.6853 285.941 43.9513 286.249 44.138C286.566 44.3153 286.902 44.404 287.257 44.404C287.621 44.404 287.957 44.3107 288.265 44.124C288.582 43.9373 288.834 43.6713 289.021 43.326C289.217 42.9807 289.315 42.57 289.315 42.094ZM292.237 42.094C292.237 41.31 292.391 40.6147 292.699 40.008C293.017 39.4013 293.441 38.9347 293.973 38.608C294.515 38.2813 295.117 38.118 295.779 38.118C296.358 38.118 296.862 38.2347 297.291 38.468C297.73 38.7013 298.08 38.9953 298.341 39.35V38.244H300.315V46H298.341V44.866C298.089 45.23 297.739 45.5333 297.291 45.776C296.853 46.0093 296.344 46.126 295.765 46.126C295.112 46.126 294.515 45.958 293.973 45.622C293.441 45.286 293.017 44.8147 292.699 44.208C292.391 43.592 292.237 42.8873 292.237 42.094ZM298.341 42.122C298.341 41.646 298.248 41.24 298.061 40.904C297.875 40.5587 297.623 40.2973 297.305 40.12C296.988 39.9333 296.647 39.84 296.283 39.84C295.919 39.84 295.583 39.9287 295.275 40.106C294.967 40.2833 294.715 40.5447 294.519 40.89C294.333 41.226 294.239 41.6273 294.239 42.094C294.239 42.5607 294.333 42.9713 294.519 43.326C294.715 43.6713 294.967 43.9373 295.275 44.124C295.593 44.3107 295.929 44.404 296.283 44.404C296.647 44.404 296.988 44.3153 297.305 44.138C297.623 43.9513 297.875 43.69 298.061 43.354C298.248 43.0087 298.341 42.598 298.341 42.122ZM304.512 39.854V43.606C304.512 43.8673 304.572 44.0587 304.694 44.18C304.824 44.292 305.039 44.348 305.338 44.348H306.248V46H305.016C303.364 46 302.538 45.1973 302.538 43.592V39.854H301.614V38.244H302.538V36.326H304.512V38.244H306.248V39.854H304.512ZM314.867 41.954C314.867 42.234 314.849 42.486 314.811 42.71H309.141C309.188 43.27 309.384 43.7087 309.729 44.026C310.075 44.3433 310.499 44.502 311.003 44.502C311.731 44.502 312.249 44.1893 312.557 43.564H314.671C314.447 44.3107 314.018 44.9267 313.383 45.412C312.749 45.888 311.969 46.126 311.045 46.126C310.299 46.126 309.627 45.9627 309.029 45.636C308.441 45.3 307.979 44.8287 307.643 44.222C307.317 43.6153 307.153 42.9153 307.153 42.122C307.153 41.3193 307.317 40.6147 307.643 40.008C307.97 39.4013 308.427 38.9347 309.015 38.608C309.603 38.2813 310.28 38.118 311.045 38.118C311.783 38.118 312.441 38.2767 313.019 38.594C313.607 38.9113 314.06 39.364 314.377 39.952C314.704 40.5307 314.867 41.198 314.867 41.954ZM312.837 41.394C312.828 40.89 312.646 40.4887 312.291 40.19C311.937 39.882 311.503 39.728 310.989 39.728C310.504 39.728 310.093 39.8773 309.757 40.176C309.431 40.4653 309.23 40.8713 309.155 41.394H312.837ZM320.596 38.132C321.52 38.132 322.267 38.426 322.836 39.014C323.405 39.5927 323.69 40.4047 323.69 41.45V46H321.73V41.716C321.73 41.1 321.576 40.6287 321.268 40.302C320.96 39.966 320.54 39.798 320.008 39.798C319.467 39.798 319.037 39.966 318.72 40.302C318.412 40.6287 318.258 41.1 318.258 41.716V46H316.298V38.244H318.258V39.21C318.519 38.874 318.851 38.6127 319.252 38.426C319.663 38.23 320.111 38.132 320.596 38.132ZM52.092 60.252C52.092 60.7747 51.966 61.2647 51.714 61.722C51.4713 62.1793 51.084 62.548 50.552 62.828C50.0293 63.108 49.3667 63.248 48.564 63.248H46.926V67H44.966V57.228H48.564C49.32 57.228 49.964 57.3587 50.496 57.62C51.028 57.8813 51.4247 58.2407 51.686 58.698C51.9567 59.1553 52.092 59.6733 52.092 60.252ZM48.48 61.666C49.0213 61.666 49.4227 61.5447 49.684 61.302C49.9453 61.05 50.076 60.7 50.076 60.252C50.076 59.3 49.544 58.824 48.48 58.824H46.926V61.666H48.48ZM60.6936 62.954C60.6936 63.234 60.6749 63.486 60.6376 63.71H54.9676C55.0142 64.27 55.2102 64.7087 55.5556 65.026C55.9009 65.3433 56.3256 65.502 56.8296 65.502C57.5576 65.502 58.0756 65.1893 58.3836 64.564H60.4976C60.2736 65.3107 59.8442 65.9267 59.2096 66.412C58.5749 66.888 57.7956 67.126 56.8716 67.126C56.1249 67.126 55.4529 66.9627 54.8556 66.636C54.2676 66.3 53.8056 65.8287 53.4696 65.222C53.1429 64.6153 52.9796 63.9153 52.9796 63.122C52.9796 62.3193 53.1429 61.6147 53.4696 61.008C53.7962 60.4013 54.2536 59.9347 54.8416 59.608C55.4296 59.2813 56.1062 59.118 56.8716 59.118C57.6089 59.118 58.2669 59.2767 58.8456 59.594C59.4336 59.9113 59.8862 60.364 60.2036 60.952C60.5302 61.5307 60.6936 62.198 60.6936 62.954ZM58.6636 62.394C58.6542 61.89 58.4722 61.4887 58.1176 61.19C57.7629 60.882 57.3289 60.728 56.8156 60.728C56.3302 60.728 55.9196 60.8773 55.5836 61.176C55.2569 61.4653 55.0562 61.8713 54.9816 62.394H58.6636ZM66.7162 67L64.0842 63.696V67H62.1242V56.64H64.0842V62.534L66.6882 59.244H69.2362L65.8202 63.136L69.2642 67H66.7162ZM69.796 63.094C69.796 62.31 69.95 61.6147 70.258 61.008C70.5753 60.4013 71 59.9347 71.532 59.608C72.0733 59.2813 72.6753 59.118 73.338 59.118C73.9167 59.118 74.4207 59.2347 74.85 59.468C75.2887 59.7013 75.6387 59.9953 75.9 60.35V59.244H77.874V67H75.9V65.866C75.648 66.23 75.298 66.5333 74.85 66.776C74.4113 67.0093 73.9027 67.126 73.324 67.126C72.6707 67.126 72.0733 66.958 71.532 66.622C71 66.286 70.5753 65.8147 70.258 65.208C69.95 64.592 69.796 63.8873 69.796 63.094ZM75.9 63.122C75.9 62.646 75.8067 62.24 75.62 61.904C75.4333 61.5587 75.1813 61.2973 74.864 61.12C74.5467 60.9333 74.206 60.84 73.842 60.84C73.478 60.84 73.142 60.9287 72.834 61.106C72.526 61.2833 72.274 61.5447 72.078 61.89C71.8913 62.226 71.798 62.6273 71.798 63.094C71.798 63.5607 71.8913 63.9713 72.078 64.326C72.274 64.6713 72.526 64.9373 72.834 65.124C73.1513 65.3107 73.4873 65.404 73.842 65.404C74.206 65.404 74.5467 65.3153 74.864 65.138C75.1813 64.9513 75.4333 64.69 75.62 64.354C75.8067 64.0087 75.9 63.598 75.9 63.122ZM81.7483 56.64V67H79.7883V56.64H81.7483ZM87.1288 67.126C86.3821 67.126 85.7101 66.9627 85.1128 66.636C84.5154 66.3 84.0441 65.8287 83.6988 65.222C83.3628 64.6153 83.1948 63.9153 83.1948 63.122C83.1948 62.3287 83.3674 61.6287 83.7128 61.022C84.0674 60.4153 84.5481 59.9487 85.1548 59.622C85.7614 59.286 86.4381 59.118 87.1848 59.118C87.9314 59.118 88.6081 59.286 89.2148 59.622C89.8214 59.9487 90.2974 60.4153 90.6428 61.022C90.9974 61.6287 91.1748 62.3287 91.1748 63.122C91.1748 63.9153 90.9928 64.6153 90.6287 65.222C90.2741 65.8287 89.7888 66.3 89.1728 66.636C88.5661 66.9627 87.8848 67.126 87.1288 67.126ZM87.1288 65.418C87.4834 65.418 87.8148 65.334 88.1228 65.166C88.4401 64.9887 88.6921 64.7273 88.8788 64.382C89.0654 64.0367 89.1588 63.6167 89.1588 63.122C89.1588 62.3847 88.9628 61.82 88.5708 61.428C88.1881 61.0267 87.7168 60.826 87.1568 60.826C86.5968 60.826 86.1254 61.0267 85.7428 61.428C85.3694 61.82 85.1828 62.3847 85.1828 63.122C85.1828 63.8593 85.3648 64.4287 85.7288 64.83C86.1021 65.222 86.5688 65.418 87.1288 65.418ZM96.9105 59.132C97.8345 59.132 98.5812 59.426 99.1505 60.014C99.7198 60.5927 100.004 61.4047 100.004 62.45V67H98.0445V62.716C98.0445 62.1 97.8905 61.6287 97.5825 61.302C97.2745 60.966 96.8545 60.798 96.3225 60.798C95.7812 60.798 95.3518 60.966 95.0345 61.302C94.7265 61.6287 94.5725 62.1 94.5725 62.716V67H92.6125V59.244H94.5725V60.21C94.8338 59.874 95.1652 59.6127 95.5665 59.426C95.9772 59.23 96.4252 59.132 96.9105 59.132ZM104.906 59.118C105.485 59.118 105.994 59.2347 106.432 59.468C106.871 59.692 107.216 59.986 107.468 60.35V59.244H109.442V67.056C109.442 67.7747 109.298 68.414 109.008 68.974C108.719 69.5433 108.285 69.9913 107.706 70.318C107.128 70.654 106.428 70.822 105.606 70.822C104.505 70.822 103.6 70.5653 102.89 70.052C102.19 69.5387 101.794 68.8387 101.7 67.952H103.646C103.749 68.3067 103.968 68.5867 104.304 68.792C104.65 69.0067 105.065 69.114 105.55 69.114C106.12 69.114 106.582 68.9413 106.936 68.596C107.291 68.26 107.468 67.7467 107.468 67.056V65.852C107.216 66.216 106.866 66.5193 106.418 66.762C105.98 67.0047 105.476 67.126 104.906 67.126C104.253 67.126 103.656 66.958 103.114 66.622C102.573 66.286 102.144 65.8147 101.826 65.208C101.518 64.592 101.364 63.8873 101.364 63.094C101.364 62.31 101.518 61.6147 101.826 61.008C102.144 60.4013 102.568 59.9347 103.1 59.608C103.642 59.2813 104.244 59.118 104.906 59.118ZM107.468 63.122C107.468 62.646 107.375 62.24 107.188 61.904C107.002 61.5587 106.75 61.2973 106.432 61.12C106.115 60.9333 105.774 60.84 105.41 60.84C105.046 60.84 104.71 60.9287 104.402 61.106C104.094 61.2833 103.842 61.5447 103.646 61.89C103.46 62.226 103.366 62.6273 103.366 63.094C103.366 63.5607 103.46 63.9713 103.646 64.326C103.842 64.6713 104.094 64.9373 104.402 65.124C104.72 65.3107 105.056 65.404 105.41 65.404C105.774 65.404 106.115 65.3153 106.432 65.138C106.75 64.9513 107.002 64.69 107.188 64.354C107.375 64.0087 107.468 63.598 107.468 63.122ZM110.853 63.094C110.853 62.31 111.007 61.6147 111.315 61.008C111.632 60.4013 112.057 59.9347 112.589 59.608C113.13 59.2813 113.732 59.118 114.395 59.118C114.973 59.118 115.477 59.2347 115.907 59.468C116.345 59.7013 116.695 59.9953 116.957 60.35V59.244H118.931V67H116.957V65.866C116.705 66.23 116.355 66.5333 115.907 66.776C115.468 67.0093 114.959 67.126 114.381 67.126C113.727 67.126 113.13 66.958 112.589 66.622C112.057 66.286 111.632 65.8147 111.315 65.208C111.007 64.592 110.853 63.8873 110.853 63.094ZM116.957 63.122C116.957 62.646 116.863 62.24 116.677 61.904C116.49 61.5587 116.238 61.2973 115.921 61.12C115.603 60.9333 115.263 60.84 114.899 60.84C114.535 60.84 114.199 60.9287 113.891 61.106C113.583 61.2833 113.331 61.5447 113.135 61.89C112.948 62.226 112.855 62.6273 112.855 63.094C112.855 63.5607 112.948 63.9713 113.135 64.326C113.331 64.6713 113.583 64.9373 113.891 65.124C114.208 65.3107 114.544 65.404 114.899 65.404C115.263 65.404 115.603 65.3153 115.921 65.138C116.238 64.9513 116.49 64.69 116.677 64.354C116.863 64.0087 116.957 63.598 116.957 63.122ZM125.143 59.132C126.067 59.132 126.814 59.426 127.383 60.014C127.952 60.5927 128.237 61.4047 128.237 62.45V67H126.277V62.716C126.277 62.1 126.123 61.6287 125.815 61.302C125.507 60.966 125.087 60.798 124.555 60.798C124.014 60.798 123.584 60.966 123.267 61.302C122.959 61.6287 122.805 62.1 122.805 62.716V67H120.845V59.244H122.805V60.21C123.066 59.874 123.398 59.6127 123.799 59.426C124.21 59.23 124.658 59.132 125.143 59.132ZM138.029 67L135.397 63.696V67H133.437V56.64H135.397V62.534L138.001 59.244H140.549L137.133 63.136L140.577 67H138.029ZM148.934 59.244V67H146.96V66.02C146.708 66.356 146.377 66.622 145.966 66.818C145.565 67.0047 145.126 67.098 144.65 67.098C144.044 67.098 143.507 66.972 143.04 66.72C142.574 66.4587 142.205 66.0807 141.934 65.586C141.673 65.082 141.542 64.4847 141.542 63.794V59.244H143.502V63.514C143.502 64.13 143.656 64.606 143.964 64.942C144.272 65.2687 144.692 65.432 145.224 65.432C145.766 65.432 146.19 65.2687 146.498 64.942C146.806 64.606 146.96 64.13 146.96 63.514V59.244H148.934ZM155.166 59.132C156.09 59.132 156.837 59.426 157.406 60.014C157.976 60.5927 158.26 61.4047 158.26 62.45V67H156.3V62.716C156.3 62.1 156.146 61.6287 155.838 61.302C155.53 60.966 155.11 60.798 154.578 60.798C154.037 60.798 153.608 60.966 153.29 61.302C152.982 61.6287 152.828 62.1 152.828 62.716V67H150.868V59.244H152.828V60.21C153.09 59.874 153.421 59.6127 153.822 59.426C154.233 59.23 154.681 59.132 155.166 59.132ZM161.118 58.32C160.764 58.32 160.47 58.2127 160.236 57.998C160.012 57.774 159.9 57.4987 159.9 57.172C159.9 56.8453 160.012 56.5747 160.236 56.36C160.47 56.136 160.764 56.024 161.118 56.024C161.464 56.024 161.748 56.136 161.972 56.36C162.196 56.5747 162.308 56.8453 162.308 57.172C162.308 57.4987 162.196 57.774 161.972 57.998C161.748 58.2127 161.464 58.32 161.118 58.32ZM162.084 68.274C162.084 69.1327 161.87 69.7487 161.44 70.122C161.02 70.5047 160.414 70.696 159.62 70.696H158.752V69.03H159.312C159.611 69.03 159.821 68.9693 159.942 68.848C160.064 68.736 160.124 68.5493 160.124 68.288V59.244H162.084V68.274ZM171.343 59.244V67H169.369V66.02C169.117 66.356 168.785 66.622 168.375 66.818C167.973 67.0047 167.535 67.098 167.059 67.098C166.452 67.098 165.915 66.972 165.449 66.72C164.982 66.4587 164.613 66.0807 164.343 65.586C164.081 65.082 163.951 64.4847 163.951 63.794V59.244H165.911V63.514C165.911 64.13 166.065 64.606 166.373 64.942C166.681 65.2687 167.101 65.432 167.633 65.432C168.174 65.432 168.599 65.2687 168.907 64.942C169.215 64.606 169.369 64.13 169.369 63.514V59.244H171.343ZM177.575 59.132C178.499 59.132 179.245 59.426 179.815 60.014C180.384 60.5927 180.669 61.4047 180.669 62.45V67H178.709V62.716C178.709 62.1 178.555 61.6287 178.247 61.302C177.939 60.966 177.519 60.798 176.987 60.798C176.445 60.798 176.016 60.966 175.699 61.302C175.391 61.6287 175.237 62.1 175.237 62.716V67H173.277V59.244H175.237V60.21C175.498 59.874 175.829 59.6127 176.231 59.426C176.641 59.23 177.089 59.132 177.575 59.132ZM185.57 59.118C186.149 59.118 186.658 59.2347 187.096 59.468C187.535 59.692 187.88 59.986 188.132 60.35V59.244H190.106V67.056C190.106 67.7747 189.962 68.414 189.672 68.974C189.383 69.5433 188.949 69.9913 188.37 70.318C187.792 70.654 187.092 70.822 186.27 70.822C185.169 70.822 184.264 70.5653 183.554 70.052C182.854 69.5387 182.458 68.8387 182.364 67.952H184.31C184.413 68.3067 184.632 68.5867 184.968 68.792C185.314 69.0067 185.729 69.114 186.214 69.114C186.784 69.114 187.246 68.9413 187.6 68.596C187.955 68.26 188.132 67.7467 188.132 67.056V65.852C187.88 66.216 187.53 66.5193 187.082 66.762C186.644 67.0047 186.14 67.126 185.57 67.126C184.917 67.126 184.32 66.958 183.778 66.622C183.237 66.286 182.808 65.8147 182.49 65.208C182.182 64.592 182.028 63.8873 182.028 63.094C182.028 62.31 182.182 61.6147 182.49 61.008C182.808 60.4013 183.232 59.9347 183.764 59.608C184.306 59.2813 184.908 59.118 185.57 59.118ZM188.132 63.122C188.132 62.646 188.039 62.24 187.852 61.904C187.666 61.5587 187.414 61.2973 187.096 61.12C186.779 60.9333 186.438 60.84 186.074 60.84C185.71 60.84 185.374 60.9287 185.066 61.106C184.758 61.2833 184.506 61.5447 184.31 61.89C184.124 62.226 184.03 62.6273 184.03 63.094C184.03 63.5607 184.124 63.9713 184.31 64.326C184.506 64.6713 184.758 64.9373 185.066 65.124C185.384 65.3107 185.72 65.404 186.074 65.404C186.438 65.404 186.779 65.3153 187.096 65.138C187.414 64.9513 187.666 64.69 187.852 64.354C188.039 64.0087 188.132 63.598 188.132 63.122ZM193.015 58.32C192.669 58.32 192.38 58.2127 192.147 57.998C191.923 57.774 191.811 57.4987 191.811 57.172C191.811 56.8453 191.923 56.5747 192.147 56.36C192.38 56.136 192.669 56.024 193.015 56.024C193.36 56.024 193.645 56.136 193.869 56.36C194.102 56.5747 194.219 56.8453 194.219 57.172C194.219 57.4987 194.102 57.774 193.869 57.998C193.645 58.2127 193.36 58.32 193.015 58.32ZM193.981 59.244V67H192.021V59.244H193.981ZM202.221 67.126C201.586 67.126 201.017 67.014 200.513 66.79C200.009 66.5567 199.608 66.244 199.309 65.852C199.02 65.46 198.861 65.026 198.833 64.55H200.807C200.844 64.8487 200.989 65.096 201.241 65.292C201.502 65.488 201.824 65.586 202.207 65.586C202.58 65.586 202.87 65.5113 203.075 65.362C203.29 65.2127 203.397 65.0213 203.397 64.788C203.397 64.536 203.266 64.3493 203.005 64.228C202.753 64.0973 202.347 63.9573 201.787 63.808C201.208 63.668 200.732 63.5233 200.359 63.374C199.995 63.2247 199.678 62.996 199.407 62.688C199.146 62.38 199.015 61.9647 199.015 61.442C199.015 61.0127 199.136 60.6207 199.379 60.266C199.631 59.9113 199.986 59.6313 200.443 59.426C200.91 59.2207 201.456 59.118 202.081 59.118C203.005 59.118 203.742 59.3513 204.293 59.818C204.844 60.2753 205.147 60.896 205.203 61.68H203.327C203.299 61.372 203.168 61.1293 202.935 60.952C202.711 60.7653 202.408 60.672 202.025 60.672C201.67 60.672 201.395 60.7373 201.199 60.868C201.012 60.9987 200.919 61.1807 200.919 61.414C200.919 61.6753 201.05 61.876 201.311 62.016C201.572 62.1467 201.978 62.282 202.529 62.422C203.089 62.562 203.551 62.7067 203.915 62.856C204.279 63.0053 204.592 63.2387 204.853 63.556C205.124 63.864 205.264 64.2747 205.273 64.788C205.273 65.236 205.147 65.6373 204.895 65.992C204.652 66.3467 204.298 66.6267 203.831 66.832C203.374 67.028 202.837 67.126 202.221 67.126ZM209.164 60.854V64.606C209.164 64.8673 209.225 65.0587 209.346 65.18C209.477 65.292 209.691 65.348 209.99 65.348H210.9V67H209.668C208.016 67 207.19 66.1973 207.19 64.592V60.854H206.266V59.244H207.19V57.326H209.164V59.244H210.9V60.854H209.164ZM211.806 63.094C211.806 62.31 211.96 61.6147 212.268 61.008C212.585 60.4013 213.01 59.9347 213.542 59.608C214.083 59.2813 214.685 59.118 215.348 59.118C215.926 59.118 216.43 59.2347 216.86 59.468C217.298 59.7013 217.648 59.9953 217.91 60.35V59.244H219.884V67H217.91V65.866C217.658 66.23 217.308 66.5333 216.86 66.776C216.421 67.0093 215.912 67.126 215.334 67.126C214.68 67.126 214.083 66.958 213.542 66.622C213.01 66.286 212.585 65.8147 212.268 65.208C211.96 64.592 211.806 63.8873 211.806 63.094ZM217.91 63.122C217.91 62.646 217.816 62.24 217.63 61.904C217.443 61.5587 217.191 61.2973 216.874 61.12C216.556 60.9333 216.216 60.84 215.852 60.84C215.488 60.84 215.152 60.9287 214.844 61.106C214.536 61.2833 214.284 61.5447 214.088 61.89C213.901 62.226 213.808 62.6273 213.808 63.094C213.808 63.5607 213.901 63.9713 214.088 64.326C214.284 64.6713 214.536 64.9373 214.844 65.124C215.161 65.3107 215.497 65.404 215.852 65.404C216.216 65.404 216.556 65.3153 216.874 65.138C217.191 64.9513 217.443 64.69 217.63 64.354C217.816 64.0087 217.91 63.598 217.91 63.122ZM224.766 67.126C224.131 67.126 223.562 67.014 223.058 66.79C222.554 66.5567 222.153 66.244 221.854 65.852C221.565 65.46 221.406 65.026 221.378 64.55H223.352C223.389 64.8487 223.534 65.096 223.786 65.292C224.047 65.488 224.369 65.586 224.752 65.586C225.125 65.586 225.415 65.5113 225.62 65.362C225.835 65.2127 225.942 65.0213 225.942 64.788C225.942 64.536 225.811 64.3493 225.55 64.228C225.298 64.0973 224.892 63.9573 224.332 63.808C223.753 63.668 223.277 63.5233 222.904 63.374C222.54 63.2247 222.223 62.996 221.952 62.688C221.691 62.38 221.56 61.9647 221.56 61.442C221.56 61.0127 221.681 60.6207 221.924 60.266C222.176 59.9113 222.531 59.6313 222.988 59.426C223.455 59.2207 224.001 59.118 224.626 59.118C225.55 59.118 226.287 59.3513 226.838 59.818C227.389 60.2753 227.692 60.896 227.748 61.68H225.872C225.844 61.372 225.713 61.1293 225.48 60.952C225.256 60.7653 224.953 60.672 224.57 60.672C224.215 60.672 223.94 60.7373 223.744 60.868C223.557 60.9987 223.464 61.1807 223.464 61.414C223.464 61.6753 223.595 61.876 223.856 62.016C224.117 62.1467 224.523 62.282 225.074 62.422C225.634 62.562 226.096 62.7067 226.46 62.856C226.824 63.0053 227.137 63.2387 227.398 63.556C227.669 63.864 227.809 64.2747 227.818 64.788C227.818 65.236 227.692 65.6373 227.44 65.992C227.197 66.3467 226.843 66.6267 226.376 66.832C225.919 67.028 225.382 67.126 224.766 67.126ZM230.421 58.32C230.076 58.32 229.786 58.2127 229.553 57.998C229.329 57.774 229.217 57.4987 229.217 57.172C229.217 56.8453 229.329 56.5747 229.553 56.36C229.786 56.136 230.076 56.024 230.421 56.024C230.766 56.024 231.051 56.136 231.275 56.36C231.508 56.5747 231.625 56.8453 231.625 57.172C231.625 57.4987 231.508 57.774 231.275 57.998C231.051 58.2127 230.766 58.32 230.421 58.32ZM231.387 59.244V67H229.427V59.244H231.387ZM240.645 59.244V67H238.671V66.02C238.419 66.356 238.088 66.622 237.677 66.818C237.276 67.0047 236.837 67.098 236.361 67.098C235.755 67.098 235.218 66.972 234.751 66.72C234.285 66.4587 233.916 66.0807 233.645 65.586C233.384 65.082 233.253 64.4847 233.253 63.794V59.244H235.213V63.514C235.213 64.13 235.367 64.606 235.675 64.942C235.983 65.2687 236.403 65.432 236.935 65.432C237.477 65.432 237.901 65.2687 238.209 64.942C238.517 64.606 238.671 64.13 238.671 63.514V59.244H240.645ZM246.877 59.132C247.801 59.132 248.548 59.426 249.117 60.014C249.687 60.5927 249.971 61.4047 249.971 62.45V67H248.011V62.716C248.011 62.1 247.857 61.6287 247.549 61.302C247.241 60.966 246.821 60.798 246.289 60.798C245.748 60.798 245.319 60.966 245.001 61.302C244.693 61.6287 244.539 62.1 244.539 62.716V67H242.579V59.244H244.539V60.21C244.801 59.874 245.132 59.6127 245.533 59.426C245.944 59.23 246.392 59.132 246.877 59.132ZM261.821 57.228V58.81H259.217V67H257.257V58.81H254.653V57.228H261.821ZM272.029 57.228L268.445 67H266.065L262.481 57.228H264.581L267.269 64.998L269.943 57.228H272.029Z" fill="#424063"/>
<circle cx="345.573" cy="90.8607" r="32.04" fill="#00C875"/>
<path d="M337.124 80.8184C335.941 80.8184 334.805 81.2887 333.968 82.1257C333.131 82.9627 332.661 84.098 332.661 85.2817V96.4399C332.661 97.6236 333.131 98.7589 333.968 99.5959C334.805 100.433 335.941 100.903 337.124 100.903H348.282C349.466 100.903 350.601 100.433 351.438 99.5959C352.276 98.7589 352.746 97.6236 352.746 96.4399V95.3241L356.763 98.3368C357.011 98.5233 357.307 98.6369 357.617 98.6648C357.926 98.6927 358.237 98.6338 358.515 98.4948C358.793 98.3558 359.027 98.1421 359.191 97.8777C359.354 97.6133 359.441 97.3086 359.441 96.9978V84.7238C359.441 84.413 359.354 84.1083 359.191 83.8439C359.027 83.5794 358.793 83.3658 358.515 83.2268C358.237 83.0878 357.926 83.0289 357.617 83.0568C357.307 83.0847 357.011 83.1983 356.763 83.3848L352.746 86.3975V85.2817C352.746 84.098 352.276 82.9627 351.438 82.1257C350.601 81.2887 349.466 80.8184 348.282 80.8184H337.124ZM352.746 89.1871L357.209 85.8396V95.882L352.746 92.5345V89.1871ZM350.514 85.2817V96.4399C350.514 97.0318 350.279 97.5994 349.86 98.0179C349.442 98.4364 348.874 98.6715 348.282 98.6715H337.124C336.532 98.6715 335.965 98.4364 335.546 98.0179C335.128 97.5994 334.893 97.0318 334.893 96.4399V85.2817C334.893 84.6898 335.128 84.1222 335.546 83.7037C335.965 83.2852 336.532 83.0501 337.124 83.0501H348.282C348.874 83.0501 349.442 83.2852 349.86 83.7037C350.279 84.1222 350.514 84.6898 350.514 85.2817Z" fill="white"/>
<defs>
<filter id="filter0_ddd" x="0.130953" y="0" width="363.789" height="130.588" filterUnits="userSpaceOnUse" color-interpolation-filters="sRGB">
<feFlood flood-opacity="0" result="BackgroundImageFix"/>
<feColorMatrix in="SourceAlpha" type="matrix" values="0 0 0 0 0 0 0 0 0 0 0 0 0 0 0 0 0 0 127 0"/>
<feOffset dy="6.6501"/>
<feGaussianBlur stdDeviation="2.66004"/>
<feColorMatrix type="matrix" values="0 0 0 0 0 0 0 0 0 0 0 0 0 0 0 0 0 0 0.0282725 0"/>
<feBlend mode="normal" in2="BackgroundImageFix" result="effect1_dropShadow"/>
<feColorMatrix in="SourceAlpha" type="matrix" values="0 0 0 0 0 0 0 0 0 0 0 0 0 0 0 0 0 0 127 0"/>
<feOffset dy="22.3363"/>
<feGaussianBlur stdDeviation="8.93452"/>
<feColorMatrix type="matrix" values="0 0 0 0 0 0 0 0 0 0 0 0 0 0 0 0 0 0 0.0417275 0"/>
<feBlend mode="normal" in2="effect1_dropShadow" result="effect2_dropShadow"/>
<feColorMatrix in="SourceAlpha" type="matrix" values="0 0 0 0 0 0 0 0 0 0 0 0 0 0 0 0 0 0 127 0"/>
<feOffset dy="4"/>
<feGaussianBlur stdDeviation="7.5"/>
<feColorMatrix type="matrix" values="0 0 0 0 0 0 0 0 0 0 0 0 0 0 0 0 0 0 0.25 0"/>
<feBlend mode="normal" in2="effect2_dropShadow" result="effect3_dropShadow"/>
<feBlend mode="normal" in="SourceGraphic" in2="effect3_dropShadow" result="shape"/>
</filter>
</defs>
</svg>
