<svg width="19" height="17" viewBox="0 0 19 17" fill="none" xmlns="http://www.w3.org/2000/svg">
<path fill-rule="evenodd" clip-rule="evenodd" d="M18.4643 8.13216C18.5685 8.22593 18.6271 8.35311 18.6271 8.48572C18.6271 8.61833 18.5685 8.7455 18.4643 8.83927L13.7503 13.0819C13.6461 13.1757 13.5048 13.2284 13.3575 13.2284C13.2101 13.2284 13.0688 13.1757 12.9646 13.0819C12.8604 12.9881 12.8019 12.861 12.8019 12.7284C12.8019 12.5957 12.8604 12.4686 12.9646 12.3748L16.7304 8.98564L0.786667 8.98635C0.713618 8.98635 0.641285 8.9734 0.573796 8.94824C0.506308 8.92308 0.444987 8.88621 0.393333 8.83972C0.34168 8.79323 0.300707 8.73804 0.272752 8.6773C0.244797 8.61656 0.230409 8.55146 0.230409 8.48572C0.230409 8.41997 0.244797 8.35487 0.272752 8.29413C0.300707 8.2334 0.34168 8.17821 0.393333 8.13172C0.444987 8.08523 0.506308 8.04835 0.573796 8.0232C0.641285 7.99804 0.713618 7.98509 0.786667 7.98509L16.7304 7.98579L12.9646 4.59663C12.8604 4.50287 12.8019 4.37569 12.8019 4.24308C12.8019 4.11047 12.8604 3.9833 12.9646 3.88953C13.0688 3.79576 13.2101 3.74308 13.3575 3.74308C13.5048 3.74308 13.6461 3.79576 13.7503 3.88953L18.4643 8.13216Z" fill="white"/>
</svg>
