<svg width="50" height="50" viewBox="0 0 50 50" fill="none" xmlns="http://www.w3.org/2000/svg">
<circle cx="25" cy="25" r="25" fill="#FF0000"/>
<path d="M34.8333 15.2957C35.0627 15.2947 35.2866 15.2272 35.4773 15.1014C35.6679 14.9757 35.8167 14.7974 35.9051 14.5887C35.9934 14.3801 36.0175 14.1504 35.9742 13.9283C35.9309 13.7063 35.8222 13.5017 35.6617 13.3402C35.5532 13.2324 35.4242 13.1469 35.282 13.0885C35.1398 13.0301 34.9873 13 34.8333 13C34.6793 13 34.5268 13.0301 34.3847 13.0885C34.2425 13.1469 34.1135 13.2324 34.005 13.3402C33.9001 13.4462 33.8169 13.5712 33.76 13.7083C33.6947 13.8448 33.6627 13.9945 33.6667 14.1454C33.6667 14.4505 33.7896 14.743 34.0084 14.9588C34.2272 15.1745 34.5239 15.2957 34.8333 15.2957ZM34.8333 25.6478C34.5239 25.6478 34.2272 25.769 34.0084 25.9847C33.7896 26.2004 33.6667 26.493 33.6667 26.7981V27.2467L31.94 25.5443C31.6396 25.2463 31.2825 25.0097 30.889 24.8483C30.4956 24.6869 30.0736 24.6038 29.6475 24.6038C29.2214 24.6038 28.7994 24.6869 28.406 24.8483C28.0125 25.0097 27.6554 25.2463 27.355 25.5443L26.5383 26.3495L23.645 23.4854C23.0255 22.9078 22.2052 22.586 21.3525 22.586C20.4998 22.586 19.6795 22.9078 19.06 23.4854L17.3333 25.1877V18.7464C17.3333 18.4413 17.4562 18.1487 17.675 17.933C17.8938 17.7173 18.1906 17.5961 18.5 17.5961H30.1667C30.4761 17.5961 30.7728 17.4749 30.9916 17.2592C31.2104 17.0435 31.3333 16.751 31.3333 16.4459C31.3333 16.1408 31.2104 15.8483 30.9916 15.6325C30.7728 15.4168 30.4761 15.2957 30.1667 15.2957H18.5C17.5717 15.2957 16.6815 15.6592 16.0251 16.3063C15.3687 16.9535 15 17.8312 15 18.7464V32.5493C15 33.4645 15.3687 34.3422 16.0251 34.9893C16.6815 35.6364 17.5717 36 18.5 36H32.5C33.4283 36 34.3185 35.6364 34.9749 34.9893C35.6312 34.3422 36 33.4645 36 32.5493V26.7981C36 26.493 35.8771 26.2004 35.6583 25.9847C35.4395 25.769 35.1428 25.6478 34.8333 25.6478ZM18.5 33.6995C18.1906 33.6995 17.8938 33.5783 17.675 33.3626C17.4562 33.1469 17.3333 32.8543 17.3333 32.5493V28.4429L20.7167 25.1072C20.8881 24.9462 21.1157 24.8563 21.3525 24.8563C21.5893 24.8563 21.8169 24.9462 21.9883 25.1072L25.6867 28.7535L30.6917 33.6995H18.5ZM33.6667 32.5493C33.657 32.768 33.5841 32.9795 33.4567 33.1589L28.195 27.9483L29.0117 27.1431C29.1822 26.976 29.4129 26.8821 29.6533 26.8821C29.8938 26.8821 30.1245 26.976 30.295 27.1431L33.6667 30.5018V32.5493ZM34.8333 16.4459C34.5239 16.4459 34.2272 16.5671 34.0084 16.7828C33.7896 16.9985 33.6667 17.2911 33.6667 17.5961V22.1971C33.6667 22.5022 33.7896 22.7947 34.0084 23.0104C34.2272 23.2262 34.5239 23.3473 34.8333 23.3473C35.1428 23.3473 35.4395 23.2262 35.6583 23.0104C35.8771 22.7947 36 22.5022 36 22.1971V17.5961C36 17.2911 35.8771 16.9985 35.6583 16.7828C35.4395 16.5671 35.1428 16.4459 34.8333 16.4459Z" fill="white"/>
</svg>
