<svg width="16" height="12" viewBox="0 0 16 12" fill="none" xmlns="http://www.w3.org/2000/svg">
<path d="M12.8 4.79995H3.19995V3.19995H12.8V4.79995Z" fill="#8e8c8c"/>
<path fill-rule="evenodd" clip-rule="evenodd" d="M0 8.8C0 9.43652 0.252856 10.047 0.702944 10.4971C1.15303 10.9471 1.76348 11.2 2.4 11.2H13.6C14.2365 11.2 14.847 10.9471 15.2971 10.4971C15.7471 10.047 16 9.43652 16 8.8V2.4C16 1.76348 15.7471 1.15303 15.2971 0.702944C14.847 0.252856 14.2365 0 13.6 0H2.4C1.76348 0 1.15303 0.252856 0.702944 0.702944C0.252856 1.15303 0 1.76348 0 2.4V8.8ZM2.4 9.6H13.6C13.8122 9.6 14.0157 9.51572 14.1657 9.36569C14.3157 9.21566 14.4 9.01217 14.4 8.8V2.4C14.4 2.18783 14.3157 1.98434 14.1657 1.83431C14.0157 1.68429 13.8122 1.6 13.6 1.6H2.4C2.18783 1.6 1.98434 1.68429 1.83431 1.83431C1.68429 1.98434 1.6 2.18783 1.6 2.4V8.8C1.6 9.01217 1.68429 9.21566 1.83431 9.36569C1.98434 9.51572 2.18783 9.6 2.4 9.6Z" fill="#808080"/>
</svg>
