<svg width="17" height="15" viewBox="0 0 17 15" fill="none" xmlns="http://www.w3.org/2000/svg">
<path d="M8.5 5C9.1441 5 9.76181 4.73661 10.2173 4.26777C10.6727 3.79893 10.9286 3.16304 10.9286 2.5C10.9286 1.83696 10.6727 1.20107 10.2173 0.732233C9.76181 0.263392 9.1441 0 8.5 0C7.8559 0 7.23819 0.263392 6.78274 0.732233C6.3273 1.20107 6.07143 1.83696 6.07143 2.5C6.07143 3.16304 6.3273 3.79893 6.78274 4.26777C7.23819 4.73661 7.8559 5 8.5 5ZM8.5 3.75C8.17795 3.75 7.86909 3.6183 7.64137 3.38388C7.41365 3.14946 7.28571 2.83152 7.28571 2.5C7.28571 2.16848 7.41365 1.85054 7.64137 1.61612C7.86909 1.3817 8.17795 1.25 8.5 1.25C8.82205 1.25 9.13091 1.3817 9.35863 1.61612C9.58635 1.85054 9.71429 2.16848 9.71429 2.5C9.71429 2.83152 9.58635 3.14946 9.35863 3.38388C9.13091 3.6183 8.82205 3.75 8.5 3.75ZM3.03571 5C3.51879 5 3.98207 4.80246 4.32366 4.45083C4.66524 4.09919 4.85714 3.62228 4.85714 3.125C4.85714 2.62772 4.66524 2.15081 4.32366 1.79917C3.98207 1.44754 3.51879 1.25 3.03571 1.25C2.55264 1.25 2.08935 1.44754 1.74777 1.79917C1.40619 2.15081 1.21429 2.62772 1.21429 3.125C1.21429 3.62228 1.40619 4.09919 1.74777 4.45083C2.08935 4.80246 2.55264 5 3.03571 5ZM3.03571 3.75C2.87469 3.75 2.72026 3.68415 2.6064 3.56694C2.49254 3.44973 2.42857 3.29076 2.42857 3.125C2.42857 2.95924 2.49254 2.80027 2.6064 2.68306C2.72026 2.56585 2.87469 2.5 3.03571 2.5C3.19674 2.5 3.35117 2.56585 3.46503 2.68306C3.57889 2.80027 3.64286 2.95924 3.64286 3.125C3.64286 3.29076 3.57889 3.44973 3.46503 3.56694C3.35117 3.68415 3.19674 3.75 3.03571 3.75ZM15.7857 3.125C15.7857 3.37123 15.7386 3.61505 15.6471 3.84253C15.5555 4.07002 15.4214 4.27672 15.2522 4.45083C15.0831 4.62494 14.8823 4.76305 14.6613 4.85727C14.4403 4.9515 14.2035 5 13.9643 5C13.7251 5 13.4882 4.9515 13.2673 4.85727C13.0463 4.76305 12.8455 4.62494 12.6763 4.45083C12.5072 4.27672 12.373 4.07002 12.2815 3.84253C12.19 3.61505 12.1429 3.37123 12.1429 3.125C12.1429 2.62772 12.3348 2.15081 12.6763 1.79917C13.0179 1.44754 13.4812 1.25 13.9643 1.25C14.4474 1.25 14.9106 1.44754 15.2522 1.79917C15.5938 2.15081 15.7857 2.62772 15.7857 3.125ZM14.5714 3.125C14.5714 2.95924 14.5075 2.80027 14.3936 2.68306C14.2797 2.56585 14.1253 2.5 13.9643 2.5C13.8033 2.5 13.6488 2.56585 13.535 2.68306C13.4211 2.80027 13.3571 2.95924 13.3571 3.125C13.3571 3.29076 13.4211 3.44973 13.535 3.56694C13.6488 3.68415 13.8033 3.75 13.9643 3.75C14.1253 3.75 14.2797 3.68415 14.3936 3.56694C14.5075 3.44973 14.5714 3.29076 14.5714 3.125ZM5.44729 6.4075C5.61729 6.3075 5.81461 6.25 6.02468 6.25H10.9753C11.2079 6.24956 11.4353 6.32097 11.628 6.455C11.9389 6.67125 12.1429 7.03688 12.1429 7.45188V11.25C12.1429 12.2446 11.7591 13.1984 11.0759 13.9017C10.3927 14.6049 9.46615 15 8.5 15C7.53385 15 6.60728 14.6049 5.92411 13.9017C5.24094 13.1984 4.85714 12.2446 4.85714 11.25V7.45188C4.85714 7.00438 5.09454 6.61437 5.44729 6.4075ZM6.07143 11.25C6.07143 11.913 6.3273 12.5489 6.78274 13.0178C7.23819 13.4866 7.8559 13.75 8.5 13.75C9.1441 13.75 9.76181 13.4866 10.2173 13.0178C10.6727 12.5489 10.9286 11.913 10.9286 11.25V7.5H6.07143V11.25ZM3.94643 7.45188C3.94643 7.00625 4.07879 6.5925 4.30464 6.25H1.21429C0.892237 6.25 0.583379 6.3817 0.355656 6.61612C0.127933 6.85054 1.36238e-07 7.16848 1.36238e-07 7.5V10.625C-0.000156468 11.1632 0.134701 11.6923 0.391509 12.161C0.648317 12.6298 1.01837 13.0223 1.46583 13.3006C1.91329 13.5789 2.42298 13.7336 2.94554 13.7496C3.4681 13.7655 3.98581 13.6423 4.44854 13.3919C4.2589 13.0127 4.1208 12.6085 4.03811 12.1906C3.76351 12.3769 3.44504 12.4832 3.11649 12.4983C2.78793 12.5133 2.46156 12.4364 2.17201 12.2759C1.88246 12.1154 1.64054 11.8771 1.47192 11.5865C1.30329 11.2958 1.21427 10.9635 1.21429 10.625V7.5H3.94643V7.45188ZM13.9643 13.75C13.4543 13.75 12.9734 13.6206 12.5515 13.3919C12.7411 13.0127 12.8792 12.6085 12.9619 12.1906C13.2365 12.3769 13.555 12.4832 13.8835 12.4983C14.2121 12.5133 14.5384 12.4364 14.828 12.2759C15.1175 12.1154 15.3595 11.8771 15.5281 11.5865C15.6967 11.2958 15.7857 10.9635 15.7857 10.625V7.5H13.0536V7.45188C13.0536 7.00625 12.9212 6.5925 12.6954 6.25H15.7857C16.1078 6.25 16.4166 6.3817 16.6443 6.61612C16.8721 6.85054 17 7.16848 17 7.5V10.625C17 11.4538 16.6802 12.2487 16.1109 12.8347C15.5416 13.4208 14.7694 13.75 13.9643 13.75Z" fill="#808080"/>
</svg>
