<svg width="14" height="14" viewBox="0 0 14 14" fill="none" xmlns="http://www.w3.org/2000/svg">
<path d="M12.6 8.4C11.4254 8.4 10.3257 8.722 9.3849 9.2813C10.2227 10.2603 10.8728 11.3853 11.3029 12.6H12.6V8.4ZM9.8028 12.6C8.4308 9.3114 5.1856 7 1.4 7V12.6H9.8028ZM1.4 5.6C4.081 5.6 6.5261 6.6045 8.3818 8.2572C9.6347 7.43471 11.1013 6.99762 12.6 7V1.4H13.3056C13.6892 1.4 14 1.7115 14 2.0951V13.3049C13.9987 13.4887 13.9252 13.6647 13.7952 13.7947C13.6653 13.9248 13.4894 13.9985 13.3056 14H0.6944C0.510169 13.9998 0.333548 13.9265 0.203343 13.7962C0.0731374 13.6658 -9.34186e-08 13.4891 0 13.3049V2.0951C0.00128103 1.91126 0.0748302 1.73531 0.204759 1.60525C0.334688 1.47519 0.510566 1.40147 0.6944 1.4H2.8V0H4.2V2.8H1.4V5.6ZM11.2 0V2.8H5.6V1.4H9.8V0H11.2ZM10.15 6.3C9.87152 6.3 9.60445 6.18938 9.40754 5.99246C9.21062 5.79555 9.1 5.52848 9.1 5.25C9.1 4.97152 9.21062 4.70445 9.40754 4.50754C9.60445 4.31062 9.87152 4.2 10.15 4.2C10.4285 4.2 10.6955 4.31062 10.8925 4.50754C11.0894 4.70445 11.2 4.97152 11.2 5.25C11.2 5.52848 11.0894 5.79555 10.8925 5.99246C10.6955 6.18938 10.4285 6.3 10.15 6.3Z" fill="#808080"/>
</svg>
