<svg width="16" height="17" viewBox="0 0 16 17" fill="none" xmlns="http://www.w3.org/2000/svg">
<path d="M14.5532 6.27044L14.5531 6.27042L9.05313 1.32842L9.003 1.38421L9.05313 1.32842C8.76404 1.06868 8.38913 0.925 8.0005 0.925C7.61187 0.925 7.23696 1.06868 6.94788 1.32842L6.998 1.38421L6.94787 1.32842L1.44794 6.27036C1.11403 6.56962 0.925 6.99494 0.925 7.44121V14.4962C0.925 14.9139 1.09094 15.3145 1.38631 15.6099C1.68168 15.9053 2.08228 16.0712 2.5 16.0712H5C5.41772 16.0712 5.81832 15.9053 6.11369 15.6099C6.40906 15.3145 6.575 14.9139 6.575 14.4962V10.9962C6.575 10.8835 6.61978 10.7754 6.69948 10.6957C6.77918 10.616 6.88728 10.5712 7 10.5712H9C9.11272 10.5712 9.22082 10.616 9.30052 10.6957C9.38022 10.7754 9.425 10.8835 9.425 10.9962V14.4962C9.425 14.9139 9.59094 15.3145 9.88631 15.6099C10.1817 15.9053 10.5823 16.0712 11 16.0712H13.5C13.9177 16.0712 14.3183 15.9053 14.6137 15.6099C14.9091 15.3145 15.075 14.9139 15.075 14.4962V7.44121V7.44119C15.0749 7.22037 15.0285 7.00202 14.9386 6.80033C14.8487 6.59863 14.7173 6.4181 14.5532 6.27044ZM2.2161 7.12602L2.21613 7.126L7.7161 2.18402C7.71611 2.18401 7.71612 2.184 7.71613 2.18399C7.79411 2.114 7.89521 2.07529 8 2.07529C8.10479 2.07529 8.20589 2.114 8.28387 2.18399C8.28388 2.184 8.28389 2.18401 8.2839 2.18402L13.7839 7.126L13.7839 7.12602C13.8282 7.16577 13.8636 7.21439 13.8879 7.26871C13.9122 7.32303 13.9249 7.38186 13.925 7.44137V14.4962C13.925 14.6089 13.8802 14.717 13.8005 14.7967C13.7208 14.8764 13.6127 14.9212 13.5 14.9212H11C10.8873 14.9212 10.7792 14.8764 10.6995 14.7967C10.6198 14.717 10.575 14.6089 10.575 14.4962V10.9962C10.575 10.5785 10.4091 10.1779 10.1137 9.88251C9.81832 9.58714 9.41772 9.42121 9 9.42121H7C6.58228 9.42121 6.18168 9.58714 5.88631 9.88251C5.59094 10.1779 5.425 10.5785 5.425 10.9962V14.4962C5.425 14.6089 5.38022 14.717 5.30052 14.7967C5.22082 14.8764 5.11272 14.9212 5 14.9212H2.5C2.38728 14.9212 2.27918 14.8764 2.19948 14.7967C2.11978 14.717 2.075 14.6089 2.075 14.4962V7.44126C2.07514 7.38179 2.08777 7.323 2.11206 7.26871C2.13637 7.21439 2.17181 7.16577 2.2161 7.12602Z" fill="#808080" stroke="#808080" stroke-width="0.15"/>
</svg>
