<svg width="18" height="14" viewBox="0 0 18 14" fill="none" xmlns="http://www.w3.org/2000/svg">
<path d="M15.5264 0C16.0484 0 16.549 0.207357 16.9181 0.576454C17.2872 0.945551 17.4945 1.44615 17.4945 1.96814V12.0319C17.4945 12.5538 17.2872 13.0545 16.9181 13.4235C16.549 13.7926 16.0484 14 15.5264 14H1.96813C1.70968 14 1.45375 13.9491 1.21496 13.8502C0.976177 13.7513 0.759212 13.6063 0.576453 13.4235C0.393695 13.2408 0.248723 13.0238 0.149815 12.785C0.0509073 12.5463 0 12.2903 0 12.0319V1.96814C0 1.44615 0.207356 0.945551 0.576453 0.576454C0.94555 0.207357 1.44615 0 1.96813 0H15.5264ZM15.5264 1.31209H1.96813C1.79414 1.31209 1.62727 1.38121 1.50424 1.50424C1.38121 1.62727 1.31209 1.79414 1.31209 1.96814V12.0319C1.31209 12.394 1.606 12.6879 1.96813 12.6879H15.5264C15.7004 12.6879 15.8673 12.6188 15.9903 12.4958C16.1133 12.3727 16.1824 12.2059 16.1824 12.0319V1.96814C16.1824 1.79414 16.1133 1.62727 15.9903 1.50424C15.8673 1.38121 15.7004 1.31209 15.5264 1.31209ZM6.77913 7.43518C6.95313 7.43518 7.11999 7.5043 7.24303 7.62733C7.36606 7.75036 7.43518 7.91723 7.43518 8.09122V8.52246L7.42818 8.61693C7.2856 9.5905 6.47123 10.0602 5.24836 10.0602C4.02549 10.0602 3.21025 9.5905 3.06854 8.61693L3.06154 8.52071V8.09122C3.06154 7.91723 3.13066 7.75036 3.25369 7.62733C3.37673 7.5043 3.54359 7.43518 3.71759 7.43518H6.77913V7.43518ZM9.84242 7.86904H13.7769C13.9432 7.86909 14.1032 7.93224 14.2246 8.04571C14.3461 8.15919 14.4199 8.31454 14.4313 8.48037C14.4426 8.6462 14.3906 8.81015 14.2857 8.93909C14.1808 9.06803 14.0308 9.15235 13.8662 9.17501L13.7769 9.18113H9.84242C9.67621 9.18108 9.5162 9.11794 9.39475 9.00446C9.27329 8.89098 9.19944 8.73563 9.18811 8.5698C9.17678 8.40397 9.22882 8.24002 9.33371 8.11108C9.43861 7.98214 9.58853 7.89782 9.7532 7.87516L9.84242 7.86904H13.7769H9.84242ZM5.24836 3.93802C5.59635 3.93802 5.93008 4.07626 6.17615 4.32232C6.42221 4.56839 6.56045 4.90212 6.56045 5.25011C6.56045 5.5981 6.42221 5.93183 6.17615 6.1779C5.93008 6.42396 5.59635 6.5622 5.24836 6.5622C4.90037 6.5622 4.56664 6.42396 4.32057 6.1779C4.07451 5.93183 3.93627 5.5981 3.93627 5.25011C3.93627 4.90212 4.07451 4.56839 4.32057 4.32232C4.56664 4.07626 4.90037 3.93802 5.24836 3.93802V3.93802ZM9.84242 4.811H13.7769C13.9432 4.81105 14.1032 4.87419 14.2246 4.98767C14.3461 5.10114 14.4199 5.25649 14.4313 5.42233C14.4426 5.58816 14.3906 5.75211 14.2857 5.88105C14.1808 6.00999 14.0308 6.09431 13.8662 6.11696L13.7769 6.12309H9.84242C9.67621 6.12304 9.5162 6.05989 9.39475 5.94642C9.27329 5.83294 9.19944 5.67759 9.18811 5.51176C9.17678 5.34593 9.22882 5.18198 9.33371 5.05303C9.43861 4.92409 9.58853 4.83978 9.7532 4.81712L9.84242 4.811H13.7769H9.84242Z" fill="#808080"/>
</svg>
