<svg width="14" height="13" viewBox="0 0 14 13" fill="none" xmlns="http://www.w3.org/2000/svg">
<path fill-rule="evenodd" clip-rule="evenodd" d="M7.65626 0.672414C7.65626 0.494079 7.58712 0.323047 7.46404 0.196945C7.34097 0.0708434 7.17405 0 7 0C6.82595 0 6.65903 0.0708434 6.53596 0.196945C6.41288 0.323047 6.34374 0.494079 6.34374 0.672414V1.7931H5.48273C5.21585 1.7931 4.95423 1.86483 4.72235 1.99931L3.59534 2.66007C3.56204 2.67959 3.52432 2.68979 3.48596 2.68966H1.53119C1.35714 2.68966 1.19021 2.7605 1.06714 2.8866C0.94407 3.0127 0.874929 3.18373 0.874929 3.36207C0.874929 3.5404 0.94407 3.71144 1.06714 3.83754C1.19021 3.96364 1.35714 4.03448 1.53119 4.03448H1.90569L0.057669 8.2411C0.0030841 8.36555 -0.0132594 8.50407 0.0108089 8.63827C0.0348773 8.77246 0.0982185 8.89598 0.192421 8.99241V8.99331L0.201171 9.00228L0.215171 9.01572L0.254546 9.05159C0.438571 9.20962 0.64003 9.34503 0.854803 9.45503C1.4058 9.73029 2.012 9.86968 2.62495 9.86207C3.39496 9.86207 3.98646 9.66483 4.39509 9.45503C4.60986 9.34502 4.81132 9.20962 4.99535 9.05159L5.03473 9.01572L5.04873 9.00228L5.05573 8.9951L5.0566 8.99331L4.59372 8.51724L5.05748 8.99241C5.15168 8.89598 5.21502 8.77246 5.23909 8.63827C5.26316 8.50407 5.24681 8.36555 5.19223 8.2411L3.34421 4.03448H3.48596C3.75284 4.03448 4.01447 3.96276 4.24634 3.82828L5.37423 3.16752C5.40727 3.14815 5.44467 3.13795 5.48273 3.13793H6.34374V11.6552H4.15622C3.98217 11.6552 3.81524 11.726 3.69217 11.8521C3.5691 11.9782 3.49996 12.1493 3.49996 12.3276C3.49996 12.5059 3.5691 12.677 3.69217 12.8031C3.81524 12.9292 3.98217 13 4.15622 13H9.84378C10.0178 13 10.1848 12.9292 10.3078 12.8031C10.4309 12.677 10.5 12.5059 10.5 12.3276C10.5 12.1493 10.4309 11.9782 10.3078 11.8521C10.1848 11.726 10.0178 11.6552 9.84378 11.6552H7.65626V3.13793H8.51727C8.55533 3.13795 8.59273 3.14815 8.62577 3.16752L9.75453 3.82738C9.98554 3.96366 10.2472 4.03448 10.514 4.03448H10.6558L8.80777 8.2411C8.75319 8.36555 8.73684 8.50407 8.76091 8.63827C8.78498 8.77246 8.84832 8.89598 8.94252 8.99241V8.99331L8.95127 9.00228L8.96527 9.01572L9.00465 9.05159C9.18869 9.2096 9.39014 9.34501 9.60491 9.45503C10.1559 9.73029 10.7621 9.86968 11.3751 9.86207C12.1451 9.86207 12.7366 9.66483 13.1452 9.45503C13.36 9.34504 13.5614 9.20964 13.7455 9.05159L13.7848 9.01572L13.7936 9.00676L13.7988 9.00228L13.8058 8.9951L13.8067 8.99331L13.3438 8.51724L13.8076 8.99241C13.9018 8.89598 13.9651 8.77246 13.9892 8.63827C14.0133 8.50407 13.9969 8.36555 13.9423 8.2411L12.0952 4.03448H12.4688C12.6429 4.03448 12.8098 3.96364 12.9329 3.83754C13.0559 3.71144 13.1251 3.5404 13.1251 3.36207C13.1251 3.18373 13.0559 3.0127 12.9329 2.8866C12.8098 2.7605 12.6429 2.68966 12.4688 2.68966H10.514C10.476 2.68963 10.4386 2.67944 10.4055 2.66007L9.27678 2.00021C9.04576 1.86479 8.78429 1.79341 8.51814 1.7931H7.65626V0.672414ZM1.48306 8.27248C1.73244 8.39352 2.11132 8.51724 2.62495 8.51724C3.13858 8.51724 3.51746 8.39352 3.76684 8.27248L2.62495 5.67248L1.48306 8.27248ZM10.2332 8.27248C10.4825 8.39352 10.8614 8.51724 11.3751 8.51724C11.8887 8.51724 12.2676 8.39352 12.5169 8.27248L11.3751 5.67248L10.2332 8.27248Z" fill="#808080"/>
</svg>
