<svg width="16" height="19" viewBox="0 0 16 19" fill="none" xmlns="http://www.w3.org/2000/svg">
<path d="M12.7953 8.74195C12.5565 8.60159 12.3061 8.48781 12.0443 8.40063C12.5025 7.61929 12.7317 6.77106 12.7317 5.85714C12.7317 5.19107 12.607 4.55495 12.3576 3.9493C12.1086 3.34463 11.7716 2.8206 11.3464 2.37796C10.921 1.93529 10.4173 1.58426 9.83572 1.32485C9.25313 1.06497 8.64102 0.935 8 0.935C7.35898 0.935 6.74687 1.06497 6.16428 1.32485C5.5827 1.58426 5.07896 1.93529 4.65365 2.37796C4.22836 2.8206 3.89135 3.34463 3.64237 3.9493C3.39299 4.55495 3.26833 5.19107 3.26833 5.85714C3.26833 6.77106 3.49753 7.61929 3.95569 8.40063C3.69386 8.48781 3.4435 8.60159 3.20469 8.74195C2.93909 8.89807 2.66373 9.13378 2.3784 9.44672C2.09109 9.76183 1.84612 10.1325 1.64315 10.5582C1.43953 10.9853 1.27109 11.5348 1.13679 12.2051C1.00211 12.8774 0.935 13.6296 0.935 14.4615C0.935 15.4502 1.24393 16.299 1.8626 17.0041C2.48153 17.7095 3.23105 18.065 4.10807 18.065H11.8919C12.7689 18.065 13.5185 17.7095 14.1374 17.0041C14.7561 16.299 15.065 15.4502 15.065 14.4615C15.065 13.6296 14.9979 12.8774 14.8632 12.2051C14.7289 11.5348 14.5605 10.9853 14.3568 10.5582C14.1539 10.1325 13.9089 9.76183 13.6216 9.44672C13.3363 9.13378 13.0609 8.89807 12.7953 8.74195ZM5.57226 3.32656C6.24389 2.62752 7.05196 2.27929 8 2.27929C8.94804 2.27929 9.75611 2.62752 10.4277 3.32656C11.0995 4.0257 11.435 4.86799 11.435 5.85714C11.435 6.84629 11.0995 7.68859 10.4277 8.38772C9.75611 9.08677 8.94804 9.435 8 9.435C7.05196 9.435 6.24389 9.08677 5.57226 8.38772C4.90055 7.68859 4.565 6.84629 4.565 5.85714C4.565 4.86799 4.90055 4.0257 5.57226 3.32656ZM13.2139 16.0656C12.845 16.5048 12.4053 16.7207 11.8919 16.7207H4.10807C3.59471 16.7207 3.15498 16.5048 2.7861 16.0656C2.4171 15.6262 2.23167 15.0928 2.23167 14.4615C2.23167 12.9557 2.46945 11.7757 2.9392 10.9162C3.40198 10.0695 4.05923 9.62661 4.91394 9.57587C5.80204 10.3774 6.83161 10.7793 8 10.7793C9.16839 10.7793 10.198 10.3774 11.0861 9.57586C11.9408 9.6266 12.598 10.0695 13.0608 10.9162C13.5305 11.7757 13.7683 12.9557 13.7683 14.4615C13.7683 15.0928 13.5829 15.6262 13.2139 16.0656Z" fill="#808080" stroke="#808080" stroke-width="0.13"/>
</svg>
