<svg width="250" height="171" viewBox="0 0 250 171" fill="none" xmlns="http://www.w3.org/2000/svg">
<rect width="250" height="171" rx="20" fill="#F8F8F8"/>
<path d="M166.4 34H84V137H166.4V34Z" fill="white"/>
<path fill-rule="evenodd" clip-rule="evenodd" d="M90.201 109.317H160.465V39.7569H90.201V109.317Z" fill="#00A759"/>
<path fill-rule="evenodd" clip-rule="evenodd" d="M129.035 56.4216C132.685 57.4195 135.83 59.5957 137.995 62.4944C136.962 63.0756 135.789 63.5897 134.506 64.024C133.317 60.657 131.384 57.9589 129.035 56.4216ZM138.452 63.1386C140.065 65.5347 141.033 68.3703 141.112 71.4114H135.794C135.757 69.0477 135.387 66.8023 134.756 64.7742C136.112 64.3125 137.354 63.762 138.452 63.1386ZM124.524 77.2612C125.615 77.2612 126.686 77.3099 127.728 77.4044C127.858 75.7824 127.933 74.0375 127.943 72.2178H121.104C121.114 74.0375 121.191 75.7824 121.32 77.4044C122.363 77.3099 123.432 77.2612 124.524 77.2612ZM128.545 77.4888C130.472 77.7106 132.293 78.0884 133.959 78.5963C134.556 76.6501 134.906 74.4923 134.943 72.2178H128.794C128.783 74.0629 128.696 75.8348 128.545 77.4888ZM134.755 78.8534C136.111 79.3151 137.354 79.8656 138.451 80.4894C140.065 78.0933 141.033 75.2593 141.112 72.2178H135.794C135.757 74.5815 135.387 76.8253 134.755 78.8534ZM137.995 81.1336C136.961 80.5528 135.789 80.0375 134.506 79.604C133.317 82.9697 131.384 85.6683 129.036 87.2056C132.685 86.2077 135.829 84.031 137.995 81.1336ZM133.712 79.3499C132.102 78.8644 130.337 78.5022 128.466 78.2889C128 82.6435 127.081 86.0759 125.943 87.6599C129.305 86.9522 132.165 83.767 133.712 79.3499ZM127.658 78.2067C126.64 78.115 125.592 78.0679 124.523 78.0679C123.455 78.0679 122.409 78.115 121.39 78.2067C121.919 83.8497 123.125 87.8097 124.524 87.8097C125.922 87.8097 127.129 83.8497 127.658 78.2067ZM120.583 78.2889C118.712 78.5022 116.947 78.864 115.336 79.3494C116.883 83.7666 119.743 86.9522 123.106 87.6599C121.968 86.0759 121.049 82.6435 120.583 78.2889ZM114.541 79.6036C113.258 80.0375 112.086 80.552 111.053 81.1336C113.218 84.031 116.362 86.2077 120.011 87.2056C117.663 85.6683 115.731 82.9693 114.541 79.6036ZM110.596 80.4894C111.694 79.8656 112.936 79.3155 114.292 78.8534C113.661 76.8257 113.291 74.5811 113.253 72.2178H107.935C108.014 75.2589 108.982 78.0933 110.596 80.4894ZM115.089 78.5963C116.756 78.088 118.577 77.7106 120.504 77.4888C120.352 75.8348 120.264 74.0629 120.253 72.2178H114.104C114.141 74.4923 114.491 76.6501 115.089 78.5963ZM124.524 66.3684C125.615 66.3684 126.686 66.3185 127.728 66.224C127.858 67.846 127.933 69.5921 127.943 71.4114H121.104C121.114 69.5921 121.191 67.846 121.32 66.224C122.363 66.3189 123.432 66.3684 124.524 66.3684ZM128.545 66.1396C130.472 65.9178 132.292 65.54 133.959 65.0317C134.556 66.9779 134.906 69.137 134.943 71.4114H128.794C128.783 69.5663 128.696 67.7936 128.545 66.1396ZM133.712 64.2777C132.102 64.7636 130.337 65.1258 128.466 65.3395C128 60.9845 127.081 57.5533 125.943 55.9693C129.306 56.677 132.165 59.8605 133.712 64.2777ZM127.658 65.4217C126.64 65.5134 125.592 65.5613 124.523 65.5613C123.455 65.5613 122.409 65.513 121.39 65.4213C121.919 59.7779 123.125 55.8199 124.524 55.8199C125.922 55.8199 127.13 59.7783 127.658 65.4217ZM120.583 65.3399C118.712 65.1266 116.947 64.7636 115.336 64.2781C116.883 59.861 119.743 56.677 123.106 55.9693C121.967 57.5533 121.049 60.9849 120.583 65.3399ZM114.541 64.024C113.257 63.5905 112.085 63.0756 111.052 62.4944C113.218 59.5957 116.362 57.4195 120.013 56.4216C117.664 57.9593 115.731 60.6566 114.541 64.024ZM110.595 63.1386C111.693 63.762 112.935 64.3125 114.292 64.7742C113.659 66.8023 113.29 69.0477 113.253 71.4114H107.935C108.014 68.3703 108.982 65.5347 110.595 63.1386ZM115.089 65.0317C116.755 65.5396 118.577 65.9178 120.504 66.1396C120.352 67.7936 120.264 69.5663 120.253 71.4114H114.104C114.141 69.137 114.491 66.9779 115.089 65.0317ZM124.524 55.0132C134.132 55.0132 141.97 62.5607 141.97 71.8146C141.97 81.0685 134.132 88.616 124.524 88.616C114.915 88.616 107.077 81.0685 107.077 71.8146C107.077 62.5607 114.915 55.0132 124.524 55.0132Z" fill="white"/>
<path fill-rule="evenodd" clip-rule="evenodd" d="M102.77 79.2934L103.637 81.82H106.442L104.173 83.3811L105.039 85.9073L102.77 84.3458L100.501 85.9073L101.368 83.3811L99.0986 81.82H101.904L102.77 79.2934ZM146.277 79.2934L147.144 81.82H149.949L147.68 83.3811L148.546 85.9073L146.277 84.3458L144.008 85.9073L144.875 83.3811L142.606 81.82H145.41L146.277 79.2934ZM101.038 63.1746L101.955 65.8445H104.918L102.521 67.4928L103.436 70.1627L101.038 68.5119L98.6404 70.1627L99.556 67.4928L97.1583 65.8445H100.122L101.038 63.1746ZM148.009 63.1746L148.926 65.8445H151.889L149.491 67.4928L150.406 70.1627L148.009 68.5119L145.611 70.1627L146.527 67.4928L144.129 65.8445H147.092L148.009 63.1746ZM108.313 50.1666L109.18 52.6916H111.985L109.716 54.2543L110.582 56.7797L108.313 55.2195L106.043 56.7797L106.91 54.2543L104.641 52.6916H107.445L108.313 50.1666ZM140.735 50.1666L141.602 52.6916H144.407L142.138 54.2543L143.004 56.7797L140.735 55.2195L138.465 56.7797L139.332 54.2543L137.063 52.6916H139.867L140.735 50.1666ZM124.524 40.6258L126.073 45.1424H131.088L127.031 47.9335L128.581 52.4501L124.524 49.6587L120.467 52.4501L122.016 47.9335L117.959 45.1424H122.974L124.524 40.6258ZM116.175 90.5696L117.069 93.1716H119.959L117.621 94.783L118.515 97.3849L116.175 95.7755L113.837 97.3849L114.731 94.783L112.392 93.1716H115.284L116.175 90.5696ZM132.871 90.5696L133.765 93.1716H136.655L134.317 94.783L135.212 97.3849L132.871 95.7755L130.533 97.3849L131.427 94.783L129.088 93.1716H131.98L132.871 90.5696Z" fill="#FBE116"/>
<path fill-rule="evenodd" clip-rule="evenodd" d="M109.078 66.0582C109.667 66.2252 110.255 66.4482 110.843 66.6709C111.491 67.451 111.491 67.451 113.374 68.9552C113.432 68.8995 113.491 68.8439 113.609 68.8439L115.727 71.6296L116.61 72.2984C116.492 72.9111 116.433 73.5243 116.374 74.1926C116.904 74.304 118.081 74.4714 118.316 74.9728C119.316 74.9171 119.611 74.6384 120.552 74.8614C120.651 74.1988 121.784 75.4341 121.434 75.3068C121.67 75.3628 122.317 75.5298 122.317 75.8642C122.435 75.8642 122.611 75.8642 122.788 75.9199C122.788 76.477 122.023 76.3656 121.552 76.3656C121.551 76.4131 120.733 76.6808 120.611 76.143C120.14 76.0873 119.728 76.0312 119.316 75.9756C118.61 75.3068 117.022 75.6412 116.08 75.0284C116.08 74.8054 116.139 74.5827 116.198 74.4157C115.433 74.304 114.962 73.8582 114.197 73.6356L113.374 72.2984L112.785 71.6296C112.02 70.1811 110.373 67.3393 108.725 66.5596L109.078 66.0582ZM120.376 72.6324L118.787 71.5183C118.963 71.0169 118.375 70.0697 118.198 69.5123C118.492 68.8995 118.552 68.6769 119.199 69.2896C119.552 69.2896 119.905 69.2896 120.317 69.2896L121.317 69.0665C122.258 69.0665 122.67 67.8407 122.905 67.061C123.906 67.061 123.906 67.061 124.318 67.228C124.436 67.8968 124.318 68.5651 124.906 69.1226C124.906 69.2339 124.906 69.4009 124.906 69.5683C124.259 69.7353 123.965 70.9055 123.612 71.4626C123.612 71.5183 123.671 71.5739 123.729 71.6296C123.798 71.6214 123.865 71.6128 123.934 71.6046V72.2255C123.848 72.2116 123.761 72.1989 123.671 72.1867C123.376 72.7441 122.965 72.9668 122.317 73.1338C122.199 72.9668 122.082 72.8555 122.023 72.7441C121.788 72.7441 121.552 72.7441 121.376 72.7441C121.21 73.6781 120.519 72.467 120.376 72.6324ZM125.141 71.5183C125.553 70.5711 125.612 69.958 126.377 69.2339C126.906 69.2896 127.436 69.3453 127.966 69.4009L128.613 69.0109C128.79 69.0109 129.025 69.0109 129.26 69.0109C129.26 69.0665 129.319 69.1783 129.378 69.2896C129.073 69.4337 128.912 69.6924 128.832 69.9985H127.951C127.956 69.9846 127.961 69.9719 127.966 69.958C127.319 69.958 126.73 69.958 126.141 70.0137C126.083 70.1254 126.024 70.2924 125.965 70.4594C126.083 70.6268 126.201 70.7942 126.318 70.9608C126.789 70.7942 127.26 70.6268 127.789 70.5151C127.793 70.5028 127.795 70.4897 127.798 70.4774H128.763C128.75 70.725 128.762 70.9788 128.774 71.2142H127.86C127.852 71.1659 127.848 71.1192 127.848 71.0725C127.671 71.1282 127.554 71.1839 127.436 71.2395C127.436 71.3513 127.436 71.4626 127.495 71.6296C127.553 71.6296 127.626 71.6296 127.707 71.6296V72.2984C127.626 72.2984 127.553 72.2984 127.495 72.2984C127.554 72.5211 127.613 72.7441 127.73 72.9668C127.789 72.9668 127.848 72.9668 127.966 72.9668C127.966 72.9107 127.966 72.8542 127.966 72.7977H128.61C128.552 73.0879 128.524 73.3986 128.514 73.7187H127.968C127.967 73.5869 127.966 73.4485 127.966 73.3012C127.613 73.4125 127.26 73.5242 126.906 73.6356C126.671 73.2455 126.495 72.8555 126.318 72.4654C126.201 73.0224 126.141 73.5799 126.083 74.1926C125.848 74.137 125.671 74.137 125.494 74.137L125.141 71.5183ZM128.546 75.008C128.575 75.52 128.613 76.023 128.613 76.477C128.672 76.477 128.79 76.477 128.907 76.5326C129.378 76.0873 130.025 76.0873 130.731 76.0873C130.201 76.8114 129.142 76.9227 128.554 77.8698L127.848 77.7585C127.848 77.2571 127.848 76.7557 127.848 76.31C127.73 76.31 127.613 76.31 127.495 76.31C127.495 76.3656 127.495 76.4213 127.495 76.5326C126.906 76.5326 126.318 76.5326 125.73 76.5326C125.73 76.3656 125.73 76.2543 125.789 76.143C127.506 76.0267 127.887 75.9097 127.96 75.008H128.546ZM129.341 71.6296C130.804 71.6296 132.269 71.6296 133.732 71.6296C133.438 71.1282 133.438 71.1282 133.438 70.6825C133.908 70.5711 134.379 70.4594 134.909 70.4037L135.85 71.6296C136.85 71.5739 137.262 71.4069 138.027 71.0725L140.322 72.2984C140.263 73.6912 140.204 75.0841 140.204 76.5326C139.851 76.31 139.498 76.143 139.204 75.9756C138.792 75.9756 138.38 76.0312 138.027 76.0873C137.968 75.9199 137.968 75.9199 138.439 75.2511C138.439 74.694 138.145 74.4157 137.968 73.9143C137.203 73.6912 136.439 73.4686 135.732 73.3012L133.202 72.2984C133.143 72.4654 133.085 72.688 133.085 72.9111C132.614 72.6324 131.967 72.6324 131.379 72.6324C131.202 72.4654 131.025 72.2984 130.849 72.1867C130.849 72.688 130.613 72.7441 130.025 72.7441C129.908 72.5767 129.79 72.4097 129.731 72.2427C129.6 72.2427 129.468 72.2493 129.341 72.262V71.6296ZM126.201 77.5358C125.848 77.3684 125.494 77.2014 125.2 77.0901C125.2 76.9783 125.2 76.867 125.2 76.8114C125.848 76.5887 126.318 76.6444 126.436 77.4241C126.318 77.4241 126.259 77.4797 126.201 77.5358Z" fill="white"/>
<path fill-rule="evenodd" clip-rule="evenodd" d="M94.6395 103.923H95.195C95.4504 103.923 95.6384 103.831 95.7591 103.648C95.879 103.463 95.9398 103.173 95.9398 102.779C95.9398 102.416 95.879 102.152 95.7575 101.99C95.6368 101.827 95.4397 101.746 95.1679 101.746H94.6395V103.923ZM94.2167 106.899V101.193H95.1872C95.5998 101.193 95.902 101.32 96.0917 101.576C96.2822 101.831 96.3766 102.235 96.3766 102.786C96.3766 103.351 96.2777 103.779 96.0794 104.067C95.8807 104.357 95.59 104.501 95.2049 104.501H94.6395V106.899H94.2167ZM97.0803 104.675H98.0882L97.5849 101.686L97.0803 104.675ZM96.2822 106.899L97.3139 101.193H97.8521L98.8991 106.899H98.4713L98.1843 105.254H96.985L96.71 106.899H96.2822ZM99.7218 103.809H100.235C100.532 103.809 100.749 103.723 100.888 103.551C101.027 103.38 101.096 103.112 101.096 102.75C101.096 102.4 101.035 102.148 100.912 101.99C100.789 101.831 100.59 101.752 100.317 101.752H99.7218V103.809ZM99.3092 106.899V101.193H100.371C100.763 101.193 101.053 101.313 101.244 101.554C101.434 101.795 101.529 102.163 101.529 102.656C101.529 103.039 101.472 103.345 101.357 103.574C101.242 103.802 101.065 103.962 100.826 104.053C101.036 104.081 101.192 104.183 101.298 104.361C101.403 104.539 101.467 104.815 101.489 105.188C101.498 105.326 101.507 105.516 101.517 105.762C101.543 106.384 101.61 106.764 101.716 106.899H101.192C101.14 106.767 101.106 106.457 101.091 105.969C101.083 105.724 101.075 105.53 101.066 105.388C101.044 104.994 100.976 104.726 100.864 104.581C100.751 104.437 100.551 104.364 100.26 104.364H99.7218V106.899H99.3092ZM102.769 106.899V101.778H101.804V101.193H104.109V101.778H103.202V106.899H102.769ZM104.686 104.675H105.693L105.19 101.686L104.686 104.675ZM103.888 106.899L104.919 101.193H105.458L106.505 106.899H106.077L105.79 105.254H104.591L104.315 106.899H103.888ZM106.915 101.193H107.347V106.899H106.915V101.193ZM109.276 106.899V101.193H109.694V103.938L111.062 101.193H111.551L110.374 103.497L111.637 106.899H111.123L110.091 104.053L109.694 104.835V106.899H109.276ZM112.004 106.899V101.193H113.881V101.786H112.422V103.619H113.786V104.198H112.422V106.298H113.897V106.899H112.004ZM114.879 103.619H115.321C115.586 103.619 115.772 103.545 115.879 103.397C115.987 103.249 116.041 102.995 116.041 102.633C116.041 102.29 115.986 102.049 115.877 101.91C115.768 101.769 115.575 101.7 115.296 101.7H114.879V103.619ZM114.879 106.336H115.416C115.673 106.336 115.859 106.255 115.972 106.092C116.086 105.929 116.142 105.662 116.142 105.291C116.142 104.873 116.082 104.578 115.962 104.405C115.841 104.232 115.634 104.146 115.342 104.146H114.879V106.336ZM114.471 106.899V101.193H115.458C115.812 101.193 116.069 101.305 116.228 101.532C116.389 101.758 116.468 102.12 116.468 102.619C116.468 102.96 116.426 103.234 116.339 103.44C116.254 103.646 116.122 103.788 115.945 103.864C116.165 103.93 116.326 104.079 116.431 104.306C116.536 104.535 116.589 104.854 116.589 105.261C116.589 105.782 116.494 106.186 116.304 106.471C116.114 106.756 115.845 106.899 115.498 106.899H114.471ZM117.732 104.675H118.74L118.237 101.686L117.732 104.675ZM116.934 106.899L117.966 101.193H118.504L119.551 106.899H119.123L118.836 105.254H117.637L117.362 106.899H116.934ZM119.961 106.899V101.193H120.526L121.839 106.087L121.8 101.193H122.207V106.899H121.667L120.335 101.859L120.369 106.899H119.961ZM124.888 106.899L124.864 106.108C124.796 106.408 124.685 106.637 124.536 106.796C124.386 106.956 124.206 107.035 123.994 107.035C123.586 107.035 123.286 106.791 123.093 106.302C122.901 105.812 122.805 105.049 122.805 104.009C122.805 102.974 122.906 102.224 123.108 101.757C123.311 101.29 123.635 101.056 124.08 101.056C124.423 101.056 124.69 101.212 124.883 101.522C125.074 101.831 125.173 102.265 125.176 102.823H124.759C124.75 102.433 124.685 102.132 124.564 101.92C124.443 101.708 124.274 101.601 124.058 101.601C123.764 101.601 123.555 101.795 123.431 102.183C123.307 102.57 123.244 103.239 123.244 104.19C123.244 104.954 123.311 105.518 123.443 105.884C123.576 106.251 123.779 106.435 124.053 106.435C124.3 106.435 124.489 106.292 124.619 106.005C124.749 105.719 124.815 105.303 124.815 104.756C124.815 104.69 124.815 104.639 124.814 104.603C124.813 104.567 124.81 104.533 124.807 104.501H123.952V103.923H125.216V106.899H124.888ZM125.864 106.899V101.193H126.282V103.938L127.65 101.193H128.139L126.962 103.497L128.225 106.899H127.711L126.679 104.053L126.282 104.835V106.899H125.864ZM128.592 101.193H129.024V106.899H128.592V101.193ZM130.401 106.899V101.778H129.435V101.193H131.74V101.778H130.833V106.899H130.401ZM132.317 104.675H133.324L132.821 101.686L132.317 104.675ZM131.518 106.899L132.55 101.193H133.089L134.135 106.899H133.708L133.421 105.254H132.222L131.946 106.899H131.518ZM134.546 106.899V101.193H135.111L136.424 106.087L136.384 101.193H136.792V106.899H136.252L134.919 101.859L134.954 106.899H134.546ZM139.126 103.619H139.568C139.833 103.619 140.019 103.545 140.127 103.397C140.234 103.249 140.287 102.995 140.287 102.633C140.287 102.29 140.233 102.049 140.124 101.91C140.015 101.769 139.822 101.7 139.544 101.7H139.126V103.619ZM139.126 106.336H139.663C139.921 106.336 140.106 106.255 140.22 106.092C140.333 105.929 140.389 105.662 140.389 105.291C140.389 104.873 140.329 104.578 140.209 104.405C140.088 104.232 139.881 104.146 139.59 104.146H139.126V106.336ZM138.718 106.899V101.193H139.705C140.059 101.193 140.316 101.305 140.475 101.532C140.636 101.758 140.716 102.12 140.716 102.619C140.716 102.96 140.673 103.234 140.586 103.44C140.501 103.646 140.369 103.788 140.192 103.864C140.412 103.93 140.574 104.079 140.679 104.306C140.783 104.535 140.836 104.854 140.836 105.261C140.836 105.782 140.741 106.186 140.551 106.471C140.361 106.756 140.092 106.899 139.745 106.899H138.718ZM141.979 104.675H142.987L142.484 101.686L141.979 104.675ZM141.181 106.899L142.213 101.193H142.751L143.798 106.899H143.37L143.083 105.254H141.884L141.609 106.899H141.181ZM144.208 106.899V101.193H144.774L146.087 106.087L146.047 101.193H146.455V106.899H145.915L144.581 101.859L144.616 106.899H144.208ZM149.136 106.899L149.111 106.108C149.043 106.408 148.933 106.637 148.784 106.796C148.633 106.956 148.453 107.035 148.242 107.035C147.833 107.035 147.533 106.791 147.34 106.302C147.148 105.812 147.052 105.049 147.052 104.009C147.052 102.974 147.154 102.224 147.356 101.757C147.558 101.29 147.882 101.056 148.327 101.056C148.67 101.056 148.937 101.212 149.13 101.522C149.322 101.831 149.42 102.265 149.423 102.823H149.006C148.997 102.433 148.933 102.132 148.812 101.92C148.69 101.708 148.522 101.601 148.305 101.601C148.012 101.601 147.803 101.795 147.679 102.183C147.553 102.57 147.491 103.239 147.491 104.19C147.491 104.954 147.558 105.518 147.69 105.884C147.823 106.251 148.026 106.435 148.3 106.435C148.548 106.435 148.736 106.292 148.866 106.005C148.996 105.719 149.062 105.303 149.062 104.756C149.062 104.69 149.062 104.639 149.061 104.603C149.06 104.567 149.058 104.533 149.054 104.501H148.199V103.923H149.463V106.899H149.136ZM150.031 105.088H150.433V105.291C150.433 105.68 150.493 105.972 150.611 106.171C150.73 106.367 150.906 106.466 151.139 106.466C151.349 106.466 151.513 106.372 151.633 106.18C151.753 105.991 151.812 105.729 151.812 105.395C151.812 105.128 151.776 104.922 151.703 104.778C151.631 104.634 151.466 104.488 151.21 104.343C151.149 104.307 151.064 104.26 150.954 104.199C150.648 104.031 150.463 103.904 150.399 103.821C150.294 103.679 150.216 103.512 150.164 103.319C150.113 103.124 150.087 102.899 150.087 102.642C150.087 102.145 150.177 101.757 150.359 101.477C150.542 101.196 150.795 101.056 151.119 101.056C151.427 101.056 151.668 101.185 151.843 101.444C152.017 101.703 152.104 102.063 152.104 102.519C152.104 102.533 152.103 102.558 152.102 102.591C152.1 102.624 152.099 102.649 152.099 102.663H151.711V102.604C151.711 102.284 151.659 102.036 151.555 101.862C151.451 101.689 151.304 101.601 151.113 101.601C150.917 101.601 150.763 101.685 150.65 101.852C150.537 102.017 150.48 102.244 150.48 102.527C150.48 102.796 150.519 103.005 150.596 103.153C150.672 103.301 150.84 103.448 151.099 103.59C151.13 103.607 151.177 103.633 151.237 103.668C151.632 103.888 151.868 104.052 151.945 104.161C152.038 104.292 152.107 104.451 152.152 104.639C152.197 104.827 152.22 105.051 152.22 105.313C152.22 105.854 152.121 106.275 151.923 106.577C151.724 106.879 151.448 107.029 151.095 107.029C150.742 107.029 150.476 106.881 150.296 106.584C150.115 106.288 150.025 105.852 150.025 105.276C150.025 105.257 150.026 105.225 150.028 105.183C150.03 105.14 150.031 105.108 150.031 105.088ZM153.348 104.675H154.356L153.853 101.686L153.348 104.675ZM152.55 106.899L153.582 101.193H154.12L155.167 106.899H154.739L154.452 105.254H153.253L152.977 106.899H152.55Z" fill="white"/>
<path fill-rule="evenodd" clip-rule="evenodd" d="M98.564 121.724H100.347C101.505 121.724 102.282 121.602 102.675 121.356C103.063 121.113 103.26 120.681 103.26 120.059C103.26 119.429 103.071 118.992 102.695 118.75C102.322 118.503 101.537 118.382 100.347 118.382H98.564V121.724ZM93.0109 130.739V114.367H100.127C101.697 114.367 102.943 114.455 103.865 114.629C104.782 114.804 105.551 115.081 106.168 115.468C106.966 115.98 107.563 116.614 107.955 117.368C108.344 118.123 108.54 119.023 108.54 120.059C108.54 121.887 107.967 123.291 106.826 124.266C105.684 125.241 104.037 125.727 101.885 125.727H98.564V130.739H93.0109ZM117.069 130.739V114.367H122.575V119.793L127.551 114.367H133.997L127.823 120.404L134.795 130.739H128.176L123.949 124.182L122.575 125.526V130.739H117.069ZM147.527 126.914H150.099C150.948 126.914 151.557 126.797 151.914 126.558C152.274 126.323 152.455 125.931 152.455 125.393C152.455 124.854 152.27 124.467 151.902 124.24C151.537 124.008 150.92 123.894 150.051 123.894H147.527V126.914ZM147.527 120.905H149.814C150.584 120.905 151.124 120.798 151.437 120.582C151.749 120.366 151.906 120.005 151.906 119.493C151.906 118.951 151.737 118.583 151.401 118.382C151.065 118.18 150.287 118.082 149.065 118.082H147.527V120.905ZM142.138 130.739V114.367H149.229C150.756 114.367 151.866 114.405 152.563 114.478C153.26 114.553 153.857 114.675 154.358 114.845C155.235 115.156 155.904 115.642 156.373 116.302C156.838 116.963 157.07 117.763 157.07 118.704C157.07 119.444 156.898 120.093 156.549 120.643C156.201 121.196 155.676 121.648 154.979 122.005C155.896 122.316 156.573 122.783 157.01 123.405C157.447 124.027 157.667 124.835 157.667 125.825C157.667 126.797 157.455 127.639 157.026 128.356C156.602 129.069 155.98 129.619 155.167 130.006C154.618 130.272 153.993 130.461 153.288 130.572C152.587 130.682 151.421 130.739 149.794 130.739H142.138Z" fill="#151616"/>
<rect x="89.4541" y="39.2045" width="71.7301" height="70.6788" stroke="black" stroke-width="3"/>
<rect x="84" y="34" width="82.4" height="103" stroke="black" stroke-width="4"/>
</svg>
